<svg id="buttle" version="1.1"
     xmlns="http://www.w3.org/2000/svg"
     xmlns:xlink="http://www.w3.org/1999/xlink"
     width="400" height="400"
     viewBox="0, 0, 400,400">
    <g id="svgg">
        <path id="path0"
              d="M149.000 5.487 C 147.848 5.774,143.364 8.320,142.789 9.013 C 142.521 9.336,142.075 9.600,141.798 9.600 C 141.520 9.600,141.183 9.915,141.048 10.300 C 140.782 11.058,139.288 13.228,137.982 14.753 C 137.027 15.869,136.895 48.106,137.844 48.715 C 138.088 48.872,138.566 49.542,138.905 50.205 C 139.792 51.937,144.389 56.385,145.586 56.668 C 146.144 56.800,146.882 57.151,147.226 57.449 C 147.570 57.746,148.425 58.190,149.126 58.434 C 149.827 58.678,150.392 59.086,150.382 59.339 C 150.334 60.597,149.321 63.537,148.732 64.125 C 148.365 64.492,147.944 65.346,147.795 66.023 C 147.646 66.700,147.288 67.345,146.998 67.456 C 146.709 67.567,146.355 68.126,146.211 68.697 C 146.068 69.269,145.602 70.180,145.175 70.722 C 144.749 71.264,144.400 72.022,144.400 72.405 C 144.400 72.788,144.149 73.310,143.843 73.564 C 143.537 73.819,143.057 74.606,142.777 75.313 C 142.497 76.021,142.051 76.870,141.785 77.200 C 141.519 77.530,141.084 78.475,140.820 79.300 C 140.555 80.125,140.179 80.800,139.984 80.800 C 139.790 80.800,139.439 81.512,139.205 82.382 C 138.971 83.252,138.511 84.232,138.184 84.559 C 137.857 84.886,137.478 85.749,137.341 86.477 C 137.204 87.205,136.779 88.160,136.396 88.600 C 136.012 89.040,135.577 90.084,135.427 90.921 C 135.278 91.758,134.909 92.537,134.608 92.652 C 134.306 92.768,133.937 93.614,133.786 94.531 C 133.636 95.449,133.279 96.470,132.994 96.800 C 132.708 97.130,132.261 98.210,132.000 99.200 C 131.739 100.190,131.292 101.270,131.006 101.600 C 130.721 101.930,130.363 102.960,130.210 103.888 C 130.058 104.817,129.589 106.015,129.167 106.551 C 128.745 107.087,128.399 108.128,128.397 108.863 C 128.396 109.598,128.041 110.737,127.608 111.394 C 127.175 112.050,126.704 113.400,126.562 114.394 C 126.419 115.387,126.049 116.490,125.739 116.845 C 125.429 117.199,125.013 118.494,124.813 119.721 C 124.613 120.948,124.190 122.368,123.872 122.876 C 123.555 123.384,123.189 124.770,123.060 125.955 C 122.931 127.140,122.533 128.432,122.177 128.825 C 121.791 129.252,121.443 130.564,121.315 132.070 C 121.197 133.462,120.786 135.140,120.401 135.800 C 120.017 136.460,119.598 138.197,119.470 139.659 C 119.328 141.282,118.919 142.841,118.420 143.659 C 117.820 144.644,117.602 145.691,117.599 147.600 C 117.597 149.229,117.353 150.648,116.947 151.400 C 116.586 152.070,116.151 154.280,115.963 156.400 C 115.778 158.490,115.366 160.830,115.047 161.600 C 114.728 162.370,114.264 165.534,114.016 168.630 C 113.767 171.727,113.302 175.130,112.982 176.194 C 111.957 179.599,112.122 366.844,113.151 368.553 C 113.565 369.239,114.029 370.510,114.184 371.379 C 114.339 372.247,114.811 373.396,115.233 373.933 C 115.655 374.469,116.000 375.222,116.000 375.605 C 116.000 375.988,116.280 376.535,116.623 376.819 C 116.966 377.104,117.486 377.891,117.780 378.568 C 118.267 379.695,118.918 380.483,122.648 384.467 C 125.162 387.153,127.067 388.721,129.209 389.868 C 130.414 390.513,131.850 391.335,132.400 391.694 C 132.950 392.052,133.940 392.478,134.600 392.639 C 135.260 392.800,136.310 393.307,136.933 393.766 L 138.067 394.600 200.201 394.600 L 262.335 394.600 263.268 393.743 C 263.780 393.272,264.830 392.757,265.600 392.599 C 266.370 392.440,267.270 392.074,267.601 391.783 C 267.931 391.493,268.651 391.056,269.201 390.813 C 271.799 389.662,274.006 387.930,278.171 383.776 C 280.171 381.781,282.400 378.862,282.400 378.236 C 282.400 378.060,282.850 377.381,283.400 376.727 C 283.950 376.073,284.400 375.201,284.400 374.789 C 284.400 374.377,284.667 373.890,284.994 373.707 C 285.320 373.525,285.772 372.403,285.997 371.215 C 286.222 370.028,286.675 368.759,287.003 368.396 C 287.879 367.429,287.911 178.976,287.037 175.584 C 286.727 174.383,286.284 170.967,286.053 167.994 C 285.817 164.954,285.379 162.065,285.053 161.394 C 284.735 160.737,284.351 158.670,284.199 156.800 C 284.047 154.913,283.656 152.978,283.321 152.451 C 282.974 151.905,282.629 150.124,282.509 148.251 C 282.376 146.166,282.045 144.570,281.588 143.800 C 281.195 143.140,280.746 141.340,280.590 139.800 C 280.431 138.232,280.037 136.694,279.695 136.304 C 279.351 135.913,278.971 134.424,278.827 132.904 C 278.687 131.417,278.277 129.750,277.917 129.200 C 277.557 128.650,277.139 127.300,276.988 126.200 C 276.837 125.100,276.453 123.787,276.136 123.282 C 275.818 122.777,275.454 121.427,275.327 120.282 C 275.199 119.137,274.783 117.840,274.400 117.400 C 274.018 116.960,273.591 115.713,273.451 114.629 C 273.311 113.545,272.920 112.353,272.582 111.980 C 272.244 111.607,271.819 110.359,271.637 109.207 C 271.455 108.055,271.083 106.975,270.811 106.807 C 270.538 106.638,270.154 105.637,269.957 104.581 C 269.760 103.525,269.351 102.377,269.050 102.030 C 268.748 101.684,268.381 100.731,268.235 99.913 C 268.088 99.095,267.711 98.168,267.395 97.852 C 267.080 97.537,266.653 96.528,266.447 95.611 C 266.241 94.693,265.801 93.641,265.470 93.271 C 265.139 92.902,264.739 91.880,264.581 91.000 C 264.423 90.120,263.958 89.078,263.547 88.684 C 263.136 88.291,262.800 87.539,262.800 87.013 C 262.800 86.487,262.523 85.780,262.183 85.440 C 261.844 85.101,261.369 84.233,261.127 83.512 C 260.885 82.790,260.465 81.930,260.194 81.600 C 259.923 81.270,259.489 80.339,259.230 79.532 C 258.971 78.725,258.498 77.848,258.180 77.583 C 257.861 77.318,257.600 76.799,257.600 76.429 C 257.600 76.058,257.150 75.145,256.600 74.400 C 256.050 73.655,255.600 72.747,255.600 72.384 C 255.600 72.021,255.250 71.407,254.823 71.021 C 254.395 70.634,253.931 69.796,253.791 69.159 C 253.651 68.521,253.379 68.000,253.187 68.000 C 252.995 68.000,252.469 67.235,252.019 66.300 C 251.569 65.365,250.634 63.584,249.942 62.341 C 248.515 59.782,248.606 59.090,250.483 58.202 C 251.207 57.859,252.250 57.316,252.800 56.995 C 253.350 56.674,254.109 56.409,254.486 56.406 C 254.863 56.403,255.365 56.040,255.600 55.600 C 255.835 55.160,256.221 54.800,256.457 54.800 C 257.010 54.800,261.200 50.553,261.200 49.992 C 261.200 49.759,261.605 49.020,262.100 48.350 C 262.997 47.136,263.000 47.086,263.000 31.450 L 263.000 15.768 262.079 14.584 C 259.645 11.457,258.800 10.262,258.800 9.945 C 258.800 9.755,258.558 9.600,258.262 9.600 C 257.966 9.600,257.385 9.225,256.970 8.767 C 256.555 8.309,255.673 7.672,255.008 7.353 C 254.344 7.033,253.260 6.463,252.600 6.086 C 251.433 5.419,151.582 4.842,149.000 5.487 M249.369 16.161 C 250.332 16.564,250.845 17.123,251.179 18.135 C 251.435 18.913,251.860 19.620,252.122 19.707 C 252.478 19.826,252.600 22.826,252.600 31.433 L 252.600 43.000 251.400 44.664 C 250.740 45.579,249.750 46.446,249.200 46.590 C 246.142 47.393,154.302 47.393,151.135 46.590 C 150.549 46.442,149.469 45.573,148.735 44.660 L 147.400 43.000 147.400 31.800 C 147.400 21.185,147.443 20.537,148.216 19.400 C 148.665 18.740,149.223 17.840,149.455 17.400 C 150.425 15.567,149.155 15.612,199.913 15.606 C 240.310 15.601,248.241 15.690,249.369 16.161 M235.260 58.832 C 235.704 59.070,236.328 59.835,236.646 60.532 C 236.964 61.229,237.938 62.790,238.811 64.000 C 239.684 65.210,240.399 66.397,240.399 66.638 C 240.400 66.879,240.750 67.393,241.177 67.779 C 241.605 68.166,242.065 68.986,242.200 69.600 C 242.335 70.214,242.795 71.034,243.223 71.421 C 243.650 71.807,244.000 72.443,244.000 72.833 C 244.000 73.224,244.276 73.819,244.613 74.156 C 245.377 74.920,247.600 79.105,247.600 79.779 C 247.600 80.052,247.939 80.583,248.354 80.958 C 248.769 81.334,249.217 82.186,249.351 82.853 C 249.484 83.519,249.955 84.525,250.396 85.086 C 250.838 85.648,251.201 86.399,251.203 86.754 C 251.204 87.109,251.563 87.940,252.000 88.600 C 252.437 89.260,252.796 90.205,252.797 90.700 C 252.799 91.195,253.132 91.932,253.538 92.337 C 253.943 92.743,254.392 93.658,254.534 94.370 C 254.676 95.082,255.155 96.125,255.596 96.686 C 256.038 97.248,256.400 98.199,256.400 98.800 C 256.400 99.401,256.737 100.321,257.148 100.846 C 257.559 101.371,258.033 102.430,258.201 103.200 C 258.369 103.970,258.843 105.227,259.253 105.994 C 259.664 106.761,260.000 107.862,260.000 108.440 C 260.000 109.019,260.360 109.950,260.800 110.509 C 261.240 111.069,261.600 112.039,261.600 112.666 C 261.600 113.293,262.050 114.652,262.600 115.685 C 263.150 116.718,263.600 118.142,263.600 118.850 C 263.600 119.558,263.883 120.450,264.230 120.833 C 264.576 121.215,264.991 122.490,265.152 123.664 C 265.312 124.839,265.735 126.250,266.091 126.800 C 266.447 127.350,266.867 128.700,267.026 129.800 C 267.184 130.900,267.648 132.427,268.057 133.194 C 268.466 133.962,268.800 135.402,268.800 136.400 C 268.800 137.416,269.134 138.835,269.560 139.630 C 269.978 140.410,270.454 142.297,270.617 143.824 C 270.780 145.351,271.173 146.996,271.489 147.479 C 271.806 147.962,272.210 149.852,272.387 151.679 C 272.565 153.506,272.992 155.649,273.336 156.442 C 273.681 157.236,274.084 159.576,274.233 161.642 C 274.382 163.709,274.764 166.030,275.082 166.800 C 275.519 167.860,275.749 171.556,276.025 182.000 C 276.226 189.590,276.566 198.770,276.781 202.400 C 277.329 211.677,277.322 343.503,276.773 348.200 C 276.541 350.180,276.208 355.538,276.032 360.107 C 275.769 366.933,275.595 368.542,275.056 369.138 C 274.695 369.537,274.400 370.176,274.400 370.558 C 274.400 371.388,273.789 372.594,272.870 373.576 C 269.228 377.468,265.776 380.800,265.386 380.800 C 265.123 380.800,264.455 381.156,263.903 381.591 C 263.298 382.067,261.962 382.482,260.549 382.634 C 259.257 382.773,257.390 383.183,256.400 383.544 C 254.768 384.139,249.330 384.208,198.000 384.291 L 141.400 384.383 139.305 383.328 C 138.153 382.749,136.910 381.943,136.543 381.537 C 136.176 381.132,135.553 380.800,135.159 380.800 C 134.483 380.800,133.911 380.371,131.000 377.677 C 128.896 375.729,126.000 372.136,126.000 371.472 C 126.000 371.120,125.599 370.457,125.108 370.000 L 124.216 369.170 123.748 344.685 C 123.019 306.545,122.664 221.360,123.164 204.800 C 124.010 176.844,124.396 169.184,125.036 167.652 C 125.367 166.860,125.789 164.182,125.974 161.701 C 126.163 159.173,126.531 156.924,126.811 156.587 C 127.086 156.256,127.462 154.350,127.646 152.352 C 127.830 150.355,128.273 148.153,128.629 147.460 C 128.985 146.767,129.370 145.030,129.483 143.600 C 129.596 142.170,129.999 140.455,130.378 139.790 C 130.757 139.124,131.181 137.504,131.321 136.190 C 131.460 134.875,131.940 133.087,132.387 132.215 C 132.834 131.344,133.200 130.015,133.200 129.263 C 133.200 128.510,133.537 127.333,133.948 126.647 C 134.360 125.961,134.811 124.513,134.950 123.429 C 135.090 122.345,135.451 121.175,135.753 120.829 C 136.055 120.483,136.431 119.307,136.588 118.216 C 136.746 117.125,137.218 115.795,137.637 115.262 C 138.057 114.729,138.400 113.711,138.400 113.000 C 138.400 112.289,138.743 111.271,139.163 110.738 C 139.582 110.205,140.052 108.926,140.206 107.897 C 140.361 106.868,140.733 105.822,141.033 105.573 C 141.333 105.324,141.695 104.463,141.838 103.660 C 141.981 102.857,142.412 101.660,142.796 101.000 C 143.181 100.340,143.607 99.200,143.744 98.468 C 143.881 97.735,144.355 96.675,144.796 96.114 C 145.238 95.552,145.600 94.694,145.600 94.208 C 145.600 93.722,145.960 92.998,146.400 92.600 C 146.840 92.202,147.200 91.388,147.200 90.792 C 147.200 90.196,147.549 89.264,147.975 88.722 C 148.402 88.180,148.876 87.211,149.029 86.568 C 149.182 85.926,149.551 85.118,149.849 84.774 C 150.146 84.430,150.598 83.530,150.852 82.774 C 151.106 82.018,151.537 81.130,151.809 80.800 C 152.082 80.470,152.441 79.750,152.608 79.200 C 152.774 78.650,153.245 77.771,153.655 77.246 C 154.065 76.721,154.400 76.045,154.400 75.742 C 154.400 75.440,154.760 74.884,155.200 74.507 C 155.640 74.130,156.000 73.516,156.000 73.142 C 156.000 72.768,156.450 71.927,157.000 71.273 C 157.550 70.619,158.000 69.820,158.000 69.496 C 158.000 69.173,158.360 68.450,158.800 67.891 C 159.240 67.331,159.600 66.771,159.600 66.645 C 159.600 66.519,160.275 65.400,161.100 64.159 C 161.925 62.918,162.856 61.431,163.168 60.855 C 163.847 59.603,164.407 59.010,165.207 58.696 C 166.363 58.242,234.405 58.375,235.260 58.832 "
              stroke="none" fill="#0f0f0f" fill-rule="evenodd"></path>
        <path id="path2"
              d="M168.000 4.295 C 216.081 4.570,250.706 4.571,250.538 4.300 C 250.436 4.135,227.728 4.043,200.076 4.096 C 172.424 4.149,157.990 4.238,168.000 4.295 M140.175 10.268 C 139.559 11.076,139.259 11.611,139.509 11.456 C 140.021 11.140,141.753 8.800,141.475 8.800 C 141.376 8.800,140.791 9.461,140.175 10.268 M260.399 11.500 C 260.922 12.215,261.413 12.800,261.489 12.800 C 261.793 12.800,260.801 11.300,260.145 10.767 C 259.713 10.416,259.810 10.696,260.399 11.500 M136.249 16.615 C 136.112 16.973,136.039 21.616,136.086 26.933 L 136.173 36.600 136.386 26.400 C 136.616 15.421,136.620 15.651,136.249 16.615 M263.781 31.400 C 263.781 39.540,263.834 42.813,263.900 38.674 C 263.965 34.534,263.965 27.874,263.899 23.874 C 263.834 19.873,263.781 23.260,263.781 31.400 M251.552 21.287 C 251.737 22.398,251.793 22.455,251.919 21.654 C 252.001 21.133,251.903 20.543,251.701 20.341 C 251.479 20.119,251.421 20.493,251.552 21.287 M252.171 32.000 C 252.171 36.950,252.228 38.975,252.299 36.500 C 252.369 34.025,252.369 29.975,252.299 27.500 C 252.228 25.025,252.171 27.050,252.171 32.000 M147.768 32.200 C 147.768 36.600,147.826 38.455,147.898 36.321 C 147.970 34.188,147.970 30.588,147.899 28.321 C 147.827 26.055,147.768 27.800,147.768 32.200 M250.778 43.898 C 249.874 45.701,249.887 45.879,250.820 44.483 C 251.304 43.759,251.617 43.083,251.515 42.982 C 251.413 42.880,251.081 43.292,250.778 43.898 M136.493 44.800 C 136.493 45.570,136.575 45.885,136.676 45.500 C 136.776 45.115,136.776 44.485,136.676 44.100 C 136.575 43.715,136.493 44.030,136.493 44.800 M152.100 46.276 C 152.485 46.376,153.115 46.376,153.500 46.276 C 153.885 46.175,153.570 46.093,152.800 46.093 C 152.030 46.093,151.715 46.175,152.100 46.276 M246.705 46.283 C 247.202 46.379,247.922 46.375,248.305 46.275 C 248.687 46.175,248.280 46.096,247.400 46.101 C 246.520 46.105,246.207 46.187,246.705 46.283 M168.728 46.700 C 174.518 46.762,183.878 46.762,189.528 46.700 C 195.178 46.637,190.440 46.586,179.000 46.586 C 167.560 46.586,162.938 46.637,168.728 46.700 M210.728 46.700 C 216.518 46.762,225.878 46.762,231.528 46.700 C 237.178 46.637,232.440 46.586,221.000 46.586 C 209.560 46.586,204.938 46.637,210.728 46.700 M178.200 59.093 C 210.655 59.369,234.706 59.372,234.538 59.100 C 234.436 58.935,218.928 58.842,200.076 58.894 C 181.224 58.946,171.380 59.036,178.200 59.093 M150.300 85.014 C 149.301 86.350,149.431 86.723,150.446 85.433 C 150.911 84.842,151.226 84.295,151.146 84.218 C 151.066 84.141,150.685 84.500,150.300 85.014 M268.803 100.490 C 268.801 100.650,269.159 101.370,269.599 102.090 C 270.038 102.811,270.396 103.220,270.396 103.000 C 270.395 102.780,270.037 102.060,269.600 101.400 C 269.163 100.740,268.804 100.331,268.803 100.490 M123.915 120.210 C 123.792 120.645,123.569 121.360,123.420 121.800 C 123.271 122.240,123.442 122.094,123.800 121.476 C 124.158 120.858,124.381 120.142,124.295 119.886 C 124.210 119.630,124.039 119.776,123.915 120.210 M121.665 127.817 C 120.995 129.288,121.123 129.602,121.847 128.265 C 122.186 127.640,122.388 127.054,122.296 126.963 C 122.205 126.871,121.921 127.256,121.665 127.817 M280.893 138.800 C 280.893 139.570,280.975 139.885,281.076 139.500 C 281.176 139.115,281.176 138.485,281.076 138.100 C 280.975 137.715,280.893 138.030,280.893 138.800 M116.846 148.467 C 116.821 148.834,116.696 149.464,116.570 149.867 C 116.352 150.562,116.363 150.563,116.797 149.887 C 117.048 149.496,117.173 148.866,117.073 148.487 C 116.911 147.868,116.888 147.866,116.846 148.467 M128.093 152.800 C 128.093 153.570,128.175 153.885,128.276 153.500 C 128.376 153.115,128.376 152.485,128.276 152.100 C 128.175 151.715,128.093 152.030,128.093 152.800 M284.509 155.200 C 284.509 156.190,284.587 156.595,284.682 156.100 C 284.778 155.605,284.778 154.795,284.682 154.300 C 284.587 153.805,284.509 154.210,284.509 155.200 M115.293 156.400 C 115.293 157.170,115.375 157.485,115.476 157.100 C 115.576 156.715,115.576 156.085,115.476 155.700 C 115.375 155.315,115.293 155.630,115.293 156.400 M272.439 156.400 C 272.424 156.510,272.667 157.410,272.979 158.400 C 273.291 159.390,273.550 159.840,273.555 159.400 C 273.563 158.703,272.508 155.871,272.439 156.400 M273.693 163.600 C 273.693 164.370,273.775 164.685,273.876 164.300 C 273.976 163.915,273.976 163.285,273.876 162.900 C 273.775 162.515,273.693 162.830,273.693 163.600 M274.893 171.200 C 274.893 171.970,274.975 172.285,275.076 171.900 C 275.176 171.515,275.176 170.885,275.076 170.500 C 274.975 170.115,274.893 170.430,274.893 171.200 M286.887 170.600 C 286.891 171.040,287.032 171.940,287.200 172.600 C 287.474 173.678,287.506 173.698,287.513 172.800 C 287.517 172.250,287.376 171.350,287.200 170.800 C 286.949 170.016,286.881 169.973,286.887 170.600 M112.669 171.956 C 112.521 172.695,112.420 173.683,112.444 174.150 C 112.468 174.618,112.647 174.190,112.842 173.200 C 113.037 172.210,113.138 171.223,113.067 171.006 C 112.996 170.790,112.817 171.217,112.669 171.956 M275.334 176.400 C 275.334 178.050,275.405 178.725,275.491 177.900 C 275.578 177.075,275.578 175.725,275.491 174.900 C 275.405 174.075,275.334 174.750,275.334 176.400 M287.693 176.000 C 287.693 176.770,287.775 177.085,287.876 176.700 C 287.976 176.315,287.976 175.685,287.876 175.300 C 287.775 174.915,287.693 175.230,287.693 176.000 M124.553 179.800 C 124.553 182.440,124.618 183.468,124.697 182.084 C 124.775 180.701,124.774 178.541,124.695 177.284 C 124.616 176.028,124.552 177.160,124.553 179.800 M288.193 223.000 C 288.193 247.640,288.241 257.661,288.300 245.269 C 288.359 232.877,288.359 212.717,288.300 200.469 C 288.241 188.221,288.193 198.360,288.193 223.000 M124.151 194.800 C 124.151 197.330,124.216 198.365,124.296 197.100 C 124.375 195.835,124.375 193.765,124.296 192.500 C 124.216 191.235,124.151 192.270,124.151 194.800 M275.748 196.800 C 275.748 199.110,275.814 200.055,275.895 198.900 C 275.976 197.745,275.976 195.855,275.895 194.700 C 275.814 193.545,275.748 194.490,275.748 196.800 M111.793 243.400 C 111.793 269.140,111.841 279.611,111.900 266.669 C 111.959 253.727,111.958 232.667,111.900 219.869 C 111.841 207.071,111.793 217.660,111.793 243.400 M276.191 239.000 C 276.191 258.140,276.240 266.029,276.300 256.530 C 276.360 247.032,276.360 231.372,276.300 221.730 C 276.240 212.089,276.191 219.860,276.191 239.000 M123.792 244.400 C 123.792 266.070,123.841 274.935,123.900 264.100 C 123.959 253.265,123.959 235.535,123.900 224.700 C 123.841 213.865,123.792 222.730,123.792 244.400 M124.182 323.600 C 124.182 332.510,124.235 336.155,124.300 331.700 C 124.364 327.245,124.364 319.955,124.300 315.500 C 124.235 311.045,124.182 314.690,124.182 323.600 M276.183 330.200 C 276.183 339.660,276.236 343.473,276.300 338.673 C 276.364 333.873,276.363 326.133,276.299 321.473 C 276.236 316.813,276.183 320.740,276.183 330.200 M288.181 352.800 C 288.181 360.830,288.234 364.115,288.299 360.100 C 288.365 356.085,288.365 349.515,288.299 345.500 C 288.234 341.485,288.181 344.770,288.181 352.800 M111.774 354.800 C 111.774 360.410,111.830 362.705,111.899 359.900 C 111.968 357.095,111.968 352.505,111.899 349.700 C 111.830 346.895,111.774 349.190,111.774 354.800 M275.728 351.200 C 275.728 352.630,275.801 353.215,275.889 352.500 C 275.978 351.785,275.978 350.615,275.889 349.900 C 275.801 349.185,275.728 349.770,275.728 351.200 M124.567 360.200 C 124.567 364.380,124.626 366.036,124.698 363.879 C 124.771 361.723,124.770 358.303,124.698 356.279 C 124.625 354.256,124.566 356.020,124.567 360.200 M275.309 364.000 C 275.309 364.990,275.387 365.395,275.482 364.900 C 275.578 364.405,275.578 363.595,275.482 363.100 C 275.387 362.605,275.309 363.010,275.309 364.000 M127.199 372.700 C 127.722 373.415,128.213 374.000,128.289 374.000 C 128.593 374.000,127.601 372.500,126.945 371.967 C 126.513 371.616,126.610 371.896,127.199 372.700 M272.434 372.953 L 271.469 374.200 272.613 373.112 C 273.243 372.514,273.677 371.953,273.579 371.865 C 273.480 371.777,272.965 372.267,272.434 372.953 M133.000 378.927 C 133.880 379.720,134.749 380.377,134.931 380.385 C 135.113 380.393,134.753 379.991,134.131 379.491 C 132.013 377.787,131.395 377.479,133.000 378.927 M140.537 383.294 C 140.792 383.456,149.100 383.551,159.000 383.507 C 168.900 383.462,174.750 383.376,172.000 383.315 C 159.614 383.041,140.118 383.027,140.537 383.294 M250.000 383.200 L 246.200 383.447 249.800 383.495 C 251.780 383.522,253.760 383.389,254.200 383.200 C 254.640 383.011,254.730 382.878,254.400 382.905 C 254.070 382.931,252.090 383.064,250.000 383.200 M277.781 384.900 L 276.200 386.600 277.900 385.019 C 279.481 383.548,279.784 383.200,279.481 383.200 C 279.416 383.200,278.651 383.965,277.781 384.900 M141.300 395.091 C 142.125 395.178,143.475 395.178,144.300 395.091 C 145.125 395.005,144.450 394.934,142.800 394.934 C 141.150 394.934,140.475 395.005,141.300 395.091 M255.891 395.089 C 256.601 395.177,257.861 395.179,258.691 395.092 C 259.521 395.005,258.940 394.933,257.400 394.931 C 255.860 394.929,255.181 395.000,255.891 395.089 M152.100 395.494 C 153.145 395.576,154.855 395.576,155.900 395.494 C 156.945 395.412,156.090 395.344,154.000 395.344 C 151.910 395.344,151.055 395.412,152.100 395.494 M247.700 395.494 C 248.745 395.576,250.455 395.576,251.500 395.494 C 252.545 395.412,251.690 395.344,249.600 395.344 C 247.510 395.344,246.655 395.412,247.700 395.494 M163.300 395.899 C 165.885 395.968,170.115 395.968,172.700 395.899 C 175.285 395.829,173.170 395.772,168.000 395.772 C 162.830 395.772,160.715 395.829,163.300 395.899 M228.500 395.899 C 231.525 395.967,236.475 395.967,239.500 395.899 C 242.525 395.831,240.050 395.775,234.000 395.775 C 227.950 395.775,225.475 395.831,228.500 395.899 "
              stroke="none" fill="#7c7c7c" fill-rule="evenodd"></path>
        <path id="path3"
              d="M149.419 4.769 C 149.294 4.972,148.615 5.265,147.911 5.420 C 147.207 5.574,146.174 6.010,145.616 6.388 C 145.057 6.766,143.869 7.554,142.975 8.140 C 141.349 9.206,140.297 10.456,137.886 14.193 L 136.600 16.186 136.483 28.993 C 136.344 44.132,136.661 47.699,138.382 50.352 C 140.628 53.818,142.790 55.765,146.486 57.652 C 147.869 58.357,149.205 59.090,149.455 59.279 C 150.069 59.743,149.342 62.718,148.344 63.826 C 147.935 64.280,147.600 64.900,147.600 65.204 C 147.600 65.508,147.191 66.397,146.690 67.178 C 145.346 69.279,145.005 69.889,143.212 73.400 C 142.314 75.160,141.403 76.870,141.189 77.200 C 140.975 77.530,140.620 78.250,140.401 78.800 C 140.181 79.350,139.834 80.070,139.628 80.400 C 139.422 80.730,138.691 82.260,138.003 83.800 C 135.916 88.471,135.352 89.723,134.489 91.600 C 134.033 92.590,133.532 93.850,133.374 94.400 C 133.217 94.950,132.753 96.027,132.344 96.794 C 131.935 97.561,131.594 98.461,131.587 98.794 C 131.581 99.127,131.132 100.300,130.591 101.400 C 130.050 102.500,129.605 103.670,129.601 104.000 C 129.598 104.330,129.323 105.122,128.990 105.760 C 128.658 106.397,128.465 106.998,128.561 107.094 C 128.905 107.438,129.946 105.372,130.221 103.800 C 130.375 102.920,130.732 101.930,131.013 101.600 C 131.295 101.270,131.739 100.190,132.000 99.200 C 132.261 98.210,132.708 97.130,132.994 96.800 C 133.279 96.470,133.636 95.449,133.786 94.531 C 133.937 93.614,134.306 92.768,134.608 92.652 C 134.909 92.537,135.278 91.758,135.427 90.921 C 135.577 90.084,136.012 89.040,136.396 88.600 C 136.779 88.160,137.204 87.205,137.341 86.477 C 137.478 85.749,137.857 84.886,138.184 84.559 C 138.511 84.232,138.971 83.252,139.205 82.382 C 139.439 81.512,139.790 80.800,139.984 80.800 C 140.179 80.800,140.555 80.125,140.820 79.300 C 141.084 78.475,141.519 77.530,141.785 77.200 C 142.051 76.870,142.497 76.021,142.777 75.313 C 143.057 74.606,143.537 73.819,143.843 73.564 C 144.149 73.310,144.400 72.788,144.400 72.405 C 144.400 72.022,144.749 71.264,145.175 70.722 C 145.602 70.180,146.068 69.269,146.211 68.697 C 146.355 68.126,146.709 67.567,146.998 67.456 C 147.288 67.345,147.646 66.700,147.795 66.023 C 147.944 65.346,148.365 64.492,148.732 64.125 C 149.321 63.537,150.334 60.597,150.382 59.339 C 150.392 59.086,149.827 58.678,149.126 58.434 C 148.425 58.190,147.570 57.746,147.226 57.449 C 146.882 57.151,146.144 56.800,145.586 56.668 C 144.389 56.385,139.792 51.937,138.905 50.205 C 138.566 49.542,138.088 48.872,137.844 48.715 C 136.895 48.106,137.027 15.869,137.982 14.753 C 139.288 13.228,140.782 11.058,141.048 10.300 C 141.183 9.915,141.520 9.600,141.798 9.600 C 142.075 9.600,142.521 9.336,142.789 9.013 C 143.057 8.690,144.474 7.745,145.938 6.913 L 148.600 5.400 200.000 5.400 C 247.807 5.400,251.484 5.448,252.600 6.086 C 253.260 6.463,254.344 7.033,255.008 7.353 C 255.673 7.672,256.555 8.309,256.970 8.767 C 257.385 9.225,257.966 9.600,258.262 9.600 C 258.558 9.600,258.800 9.755,258.800 9.945 C 258.800 10.262,259.645 11.457,262.079 14.584 L 263.000 15.768 263.000 31.450 C 263.000 47.086,262.997 47.136,262.100 48.350 C 261.605 49.020,261.200 49.759,261.200 49.992 C 261.200 50.553,257.010 54.800,256.457 54.800 C 256.221 54.800,255.835 55.160,255.600 55.600 C 255.365 56.040,254.863 56.403,254.486 56.406 C 254.109 56.409,253.350 56.674,252.800 56.995 C 252.250 57.316,251.207 57.859,250.483 58.202 C 248.606 59.090,248.515 59.782,249.942 62.341 C 250.634 63.584,251.569 65.365,252.019 66.300 C 252.469 67.235,252.995 68.000,253.187 68.000 C 253.379 68.000,253.651 68.521,253.791 69.159 C 253.931 69.796,254.395 70.634,254.823 71.021 C 255.250 71.407,255.600 72.021,255.600 72.384 C 255.600 72.747,256.050 73.655,256.600 74.400 C 257.150 75.145,257.600 76.058,257.600 76.429 C 257.600 76.799,257.861 77.318,258.180 77.583 C 258.498 77.848,258.971 78.725,259.230 79.532 C 259.489 80.339,259.923 81.270,260.194 81.600 C 260.465 81.930,260.885 82.790,261.127 83.512 C 261.369 84.233,261.844 85.101,262.183 85.440 C 262.523 85.780,262.800 86.487,262.800 87.013 C 262.800 87.539,263.136 88.291,263.547 88.684 C 263.958 89.078,264.423 90.120,264.581 91.000 C 264.739 91.880,265.139 92.902,265.470 93.271 C 265.801 93.641,266.241 94.693,266.447 95.611 C 266.653 96.528,267.080 97.537,267.395 97.852 C 267.711 98.168,268.088 99.095,268.235 99.913 C 268.381 100.731,268.748 101.684,269.050 102.030 C 269.351 102.377,269.760 103.525,269.957 104.581 C 270.154 105.637,270.538 106.638,270.811 106.807 C 271.083 106.975,271.455 108.055,271.637 109.207 C 271.819 110.359,272.244 111.607,272.582 111.980 C 272.920 112.353,273.311 113.545,273.451 114.629 C 273.591 115.713,274.018 116.960,274.400 117.400 C 274.783 117.840,275.199 119.137,275.327 120.282 C 275.454 121.427,275.818 122.777,276.136 123.282 C 276.453 123.787,276.837 125.100,276.988 126.200 C 277.139 127.300,277.557 128.650,277.917 129.200 C 278.277 129.750,278.687 131.417,278.827 132.904 C 278.972 134.438,279.349 135.909,279.699 136.304 C 280.052 136.704,280.433 138.210,280.592 139.843 C 280.760 141.565,281.171 143.143,281.632 143.843 C 282.592 145.300,282.584 144.796,281.600 142.000 C 281.174 140.790,280.819 139.170,280.811 138.400 C 280.802 137.630,280.521 136.475,280.186 135.833 C 279.852 135.191,279.414 133.512,279.215 132.102 C 279.015 130.692,278.596 129.147,278.284 128.669 C 277.973 128.191,277.589 126.938,277.432 125.883 C 277.275 124.829,276.802 123.209,276.382 122.283 C 275.961 121.358,275.614 120.111,275.609 119.512 C 275.604 118.914,275.252 117.744,274.826 116.912 C 274.400 116.081,273.923 114.680,273.765 113.800 C 273.608 112.920,273.244 111.838,272.956 111.395 C 272.668 110.952,272.230 109.647,271.983 108.495 C 271.736 107.343,271.377 106.400,271.185 106.400 C 270.993 106.400,270.718 105.725,270.574 104.900 C 270.430 104.075,269.991 102.837,269.598 102.149 C 269.206 101.462,268.757 100.292,268.599 99.549 C 268.442 98.807,267.973 97.639,267.557 96.953 C 267.141 96.267,266.800 95.455,266.800 95.150 C 266.800 94.844,266.350 93.748,265.800 92.715 C 265.250 91.682,264.800 90.496,264.800 90.080 C 264.800 89.663,264.440 88.907,264.000 88.400 C 263.560 87.893,263.200 87.226,263.200 86.918 C 263.200 86.610,262.847 85.693,262.416 84.879 C 261.985 84.066,261.388 82.860,261.090 82.200 C 260.791 81.540,260.360 80.640,260.131 80.200 C 259.902 79.760,259.438 78.860,259.101 78.200 C 256.538 73.190,255.549 71.339,255.222 70.941 C 255.015 70.688,254.558 69.878,254.208 69.141 C 253.858 68.403,253.136 67.080,252.603 66.200 C 249.190 60.566,248.805 59.325,250.300 58.776 C 254.333 57.296,261.522 51.909,261.588 50.318 C 261.595 50.163,262.050 49.372,262.600 48.562 L 263.600 47.088 263.600 31.970 C 263.600 23.276,263.437 16.423,263.216 15.842 C 262.519 14.010,258.858 9.348,257.315 8.329 C 250.716 3.970,257.034 4.401,199.724 4.400 C 169.553 4.400,149.557 4.547,149.419 4.769 M150.839 16.106 C 150.311 16.378,149.688 16.960,149.455 17.400 C 149.223 17.840,148.665 18.740,148.216 19.400 C 147.443 20.537,147.400 21.185,147.400 31.800 L 147.400 43.000 148.735 44.660 C 149.469 45.573,150.549 46.442,151.135 46.590 C 154.302 47.393,246.142 47.393,249.200 46.590 C 249.750 46.446,250.740 45.579,251.400 44.664 L 252.600 43.000 252.600 31.433 C 252.600 22.826,252.478 19.826,252.122 19.707 C 251.860 19.620,251.435 18.913,251.179 18.135 C 250.295 15.457,253.180 15.599,199.913 15.606 C 162.524 15.610,151.586 15.722,150.839 16.106 M249.691 16.900 C 253.706 20.016,253.379 43.961,249.294 46.031 C 247.986 46.695,165.823 47.101,156.230 46.492 L 150.661 46.138 149.533 44.788 C 147.935 42.873,147.797 41.758,147.827 31.000 L 147.854 21.400 148.943 19.311 C 149.541 18.162,150.339 17.043,150.715 16.823 C 151.813 16.183,248.865 16.258,249.691 16.900 M165.207 58.696 C 164.407 59.010,163.847 59.603,163.168 60.855 C 162.856 61.431,161.925 62.918,161.100 64.159 C 160.275 65.400,159.600 66.519,159.600 66.645 C 159.600 66.771,159.240 67.331,158.800 67.891 C 158.360 68.450,158.000 69.173,158.000 69.496 C 158.000 69.820,157.550 70.619,157.000 71.273 C 156.450 71.927,156.000 72.768,156.000 73.142 C 156.000 73.516,155.640 74.130,155.200 74.507 C 154.760 74.884,154.400 75.440,154.400 75.742 C 154.400 76.045,154.065 76.721,153.655 77.246 C 153.245 77.771,152.774 78.650,152.608 79.200 C 152.441 79.750,152.082 80.470,151.809 80.800 C 151.537 81.130,151.106 82.018,150.852 82.774 C 150.598 83.530,150.146 84.430,149.849 84.774 C 149.551 85.118,149.182 85.926,149.029 86.568 C 148.876 87.211,148.402 88.180,147.975 88.722 C 147.549 89.264,147.200 90.196,147.200 90.792 C 147.200 91.388,146.840 92.202,146.400 92.600 C 145.960 92.998,145.600 93.722,145.600 94.208 C 145.600 94.694,145.238 95.552,144.796 96.114 C 144.355 96.675,143.881 97.735,143.744 98.468 C 143.607 99.200,143.181 100.340,142.796 101.000 C 142.412 101.660,141.981 102.857,141.838 103.660 C 141.695 104.463,141.333 105.324,141.033 105.573 C 140.733 105.822,140.361 106.868,140.206 107.897 C 140.052 108.926,139.582 110.205,139.163 110.738 C 138.743 111.271,138.415 112.269,138.434 112.954 L 138.469 114.200 138.826 113.000 C 139.022 112.340,139.433 111.260,139.738 110.600 C 140.043 109.940,140.567 108.590,140.902 107.600 C 141.969 104.446,142.493 103.041,143.214 101.400 C 143.601 100.520,144.051 99.350,144.215 98.800 C 144.378 98.250,144.847 97.173,145.256 96.406 C 145.665 95.639,146.000 94.768,146.000 94.469 C 146.000 94.170,146.360 93.469,146.800 92.909 C 147.240 92.350,147.600 91.491,147.600 91.000 C 147.600 90.509,147.933 89.679,148.339 89.154 C 148.745 88.629,149.207 87.674,149.364 87.032 C 149.521 86.389,149.998 85.420,150.425 84.878 C 150.851 84.336,151.200 83.584,151.200 83.207 C 151.200 82.831,151.560 82.107,152.000 81.600 C 152.440 81.093,152.800 80.380,152.800 80.015 C 152.800 79.651,153.070 79.004,153.400 78.576 C 153.730 78.149,154.361 77.080,154.801 76.200 C 155.242 75.320,156.044 73.880,156.584 73.000 C 157.124 72.120,157.931 70.680,158.378 69.800 C 159.275 68.032,159.551 67.574,161.595 64.460 C 162.368 63.283,163.231 61.897,163.513 61.379 C 165.023 58.607,162.280 58.800,200.092 58.800 C 237.101 58.800,236.400 58.758,236.400 60.997 C 236.400 61.295,236.850 62.073,237.400 62.727 C 237.950 63.381,238.400 64.032,238.400 64.174 C 238.400 64.316,238.760 64.965,239.200 65.616 C 239.640 66.267,240.360 67.333,240.800 67.984 C 241.240 68.635,241.600 69.400,241.600 69.684 C 241.601 69.968,242.051 70.723,242.600 71.362 C 243.150 72.001,243.600 72.829,243.600 73.200 C 243.600 73.572,243.950 74.193,244.377 74.579 C 244.805 74.966,245.265 75.786,245.400 76.400 C 245.535 77.014,245.995 77.834,246.423 78.221 C 246.850 78.607,247.206 79.211,247.212 79.562 C 247.219 79.913,247.668 80.920,248.210 81.800 C 248.752 82.680,249.197 83.693,249.198 84.051 C 249.199 84.409,249.441 84.902,249.735 85.146 C 250.030 85.391,250.480 86.291,250.737 87.148 C 250.994 88.004,251.473 88.928,251.802 89.202 C 252.131 89.475,252.400 90.044,252.400 90.467 C 252.400 90.890,252.850 92.082,253.400 93.115 C 253.950 94.148,254.401 95.265,254.403 95.597 C 254.404 95.929,254.763 96.740,255.200 97.400 C 255.637 98.060,255.996 98.850,255.997 99.156 C 255.999 99.462,256.336 100.452,256.748 101.356 C 258.231 104.618,259.290 107.428,259.587 108.893 C 259.754 109.714,260.107 110.647,260.373 110.967 C 260.638 111.287,261.008 112.055,261.193 112.674 L 261.531 113.800 261.566 112.663 C 261.585 112.038,261.240 111.069,260.800 110.509 C 260.360 109.950,260.000 109.019,260.000 108.440 C 260.000 107.862,259.664 106.761,259.253 105.994 C 258.843 105.227,258.369 103.970,258.201 103.200 C 258.033 102.430,257.559 101.371,257.148 100.846 C 256.737 100.321,256.400 99.401,256.400 98.800 C 256.400 98.199,256.038 97.248,255.596 96.686 C 255.155 96.125,254.676 95.082,254.534 94.370 C 254.392 93.658,253.943 92.743,253.538 92.337 C 253.132 91.932,252.799 91.195,252.797 90.700 C 252.796 90.205,252.437 89.260,252.000 88.600 C 251.563 87.940,251.204 87.109,251.203 86.754 C 251.201 86.399,250.838 85.648,250.396 85.086 C 249.955 84.525,249.484 83.519,249.351 82.853 C 249.217 82.186,248.769 81.334,248.354 80.958 C 247.939 80.583,247.600 80.052,247.600 79.779 C 247.600 79.105,245.377 74.920,244.613 74.156 C 244.276 73.819,244.000 73.224,244.000 72.833 C 244.000 72.443,243.650 71.807,243.223 71.421 C 242.795 71.034,242.335 70.214,242.200 69.600 C 242.065 68.986,241.605 68.166,241.177 67.779 C 240.750 67.393,240.400 66.879,240.399 66.638 C 240.399 66.397,239.684 65.210,238.811 64.000 C 237.938 62.790,236.964 61.229,236.646 60.532 C 236.328 59.835,235.704 59.070,235.260 58.832 C 234.405 58.375,166.363 58.242,165.207 58.696 M127.494 109.732 C 127.105 110.869,126.534 112.700,126.223 113.800 C 125.913 114.900,125.377 116.340,125.032 117.000 C 124.687 117.660,124.404 118.704,124.402 119.320 C 124.401 119.936,124.130 120.962,123.800 121.600 C 123.470 122.238,123.010 123.714,122.778 124.880 C 122.546 126.046,122.076 127.659,121.733 128.465 C 121.390 129.271,121.206 130.171,121.323 130.465 C 121.457 130.801,121.549 130.714,121.568 130.231 C 121.586 129.809,121.876 129.159,122.212 128.786 C 122.549 128.414,122.931 127.140,123.060 125.955 C 123.189 124.770,123.555 123.384,123.872 122.876 C 124.190 122.368,124.613 120.948,124.813 119.721 C 125.013 118.494,125.428 117.199,125.735 116.845 C 126.042 116.490,126.416 115.398,126.565 114.418 C 126.714 113.439,127.199 112.048,127.644 111.329 C 128.111 110.574,128.399 109.523,128.326 108.842 C 128.211 107.765,128.139 107.842,127.494 109.732 M261.600 114.517 C 261.600 114.908,261.852 115.627,262.160 116.114 C 262.468 116.601,262.925 117.983,263.174 119.185 C 263.424 120.387,263.806 121.480,264.024 121.615 C 264.241 121.749,264.583 122.867,264.784 124.099 C 264.984 125.331,265.425 126.874,265.763 127.528 C 266.101 128.181,266.500 129.500,266.651 130.458 C 266.802 131.416,267.257 132.980,267.662 133.933 C 268.068 134.886,268.400 136.196,268.400 136.843 C 268.400 137.490,268.765 139.050,269.211 140.310 C 269.656 141.569,270.200 143.846,270.419 145.369 C 270.638 146.892,270.983 148.339,271.186 148.584 C 271.390 148.829,271.749 150.584,271.986 152.483 C 272.222 154.383,272.659 156.537,272.958 157.269 C 273.257 158.001,273.628 160.130,273.782 162.000 C 273.937 163.870,274.327 166.570,274.649 168.000 C 275.829 173.246,276.191 198.215,276.196 274.800 C 276.202 374.785,276.574 369.230,269.385 376.475 C 267.259 378.618,265.132 380.489,264.660 380.633 C 264.187 380.777,263.519 381.141,263.175 381.441 C 261.137 383.224,257.013 383.353,197.600 383.489 C 135.815 383.630,140.107 383.784,137.069 381.318 C 136.447 380.813,135.618 380.400,135.225 380.400 C 134.026 380.400,126.400 372.520,126.400 371.281 C 126.400 371.076,125.995 370.393,125.500 369.764 C 124.357 368.313,124.217 360.215,123.816 272.800 C 123.498 203.591,123.967 175.695,125.578 168.000 C 126.016 165.910,126.379 163.311,126.387 162.226 C 126.394 161.140,126.744 158.980,127.164 157.426 C 127.584 155.871,128.043 153.476,128.184 152.102 C 128.324 150.728,128.700 148.979,129.020 148.215 C 129.339 147.451,129.586 146.415,129.568 145.913 C 129.549 145.346,129.459 145.227,129.333 145.600 C 129.220 145.930,128.869 146.778,128.552 147.485 C 128.236 148.192,127.827 150.394,127.644 152.377 C 127.461 154.361,127.086 156.256,126.811 156.587 C 126.531 156.924,126.163 159.173,125.974 161.701 C 125.789 164.182,125.367 166.860,125.036 167.652 C 124.396 169.184,124.010 176.844,123.164 204.800 C 122.664 221.360,123.019 306.545,123.748 344.685 L 124.216 369.170 125.108 370.000 C 125.599 370.457,126.000 371.120,126.000 371.472 C 126.000 372.136,128.896 375.729,131.000 377.677 C 133.911 380.371,134.483 380.800,135.159 380.800 C 135.553 380.800,136.176 381.132,136.543 381.537 C 136.910 381.943,138.153 382.749,139.305 383.328 L 141.400 384.383 198.000 384.291 C 249.330 384.208,254.768 384.139,256.400 383.544 C 257.390 383.183,259.257 382.773,260.549 382.634 C 261.962 382.482,263.298 382.067,263.903 381.591 C 264.455 381.156,265.123 380.800,265.386 380.800 C 265.776 380.800,269.228 377.468,272.870 373.576 C 273.789 372.594,274.400 371.388,274.400 370.558 C 274.400 370.176,274.695 369.537,275.056 369.138 C 275.595 368.542,275.769 366.933,276.032 360.107 C 276.208 355.538,276.541 350.180,276.773 348.200 C 277.322 343.503,277.329 211.677,276.781 202.400 C 276.566 198.770,276.226 189.590,276.025 182.000 C 275.749 171.556,275.519 167.860,275.082 166.800 C 274.764 166.030,274.382 163.709,274.233 161.642 C 274.084 159.576,273.681 157.236,273.336 156.442 C 272.992 155.649,272.565 153.506,272.387 151.679 C 272.210 149.852,271.806 147.962,271.489 147.479 C 271.173 146.996,270.780 145.351,270.617 143.824 C 270.454 142.297,269.978 140.410,269.560 139.630 C 269.134 138.835,268.800 137.416,268.800 136.400 C 268.800 135.402,268.466 133.962,268.057 133.194 C 267.648 132.427,267.184 130.900,267.026 129.800 C 266.867 128.700,266.447 127.350,266.091 126.800 C 265.735 126.250,265.312 124.839,265.152 123.664 C 264.991 122.490,264.576 121.215,264.230 120.833 C 263.883 120.450,263.600 119.558,263.600 118.850 C 263.600 118.142,263.150 116.718,262.600 115.685 C 262.050 114.652,261.600 114.126,261.600 114.517 M137.535 115.366 C 137.170 115.856,136.743 117.144,136.586 118.229 C 136.430 119.313,136.055 120.483,135.753 120.829 C 135.451 121.175,135.090 122.345,134.950 123.429 C 134.811 124.513,134.360 125.961,133.948 126.647 C 133.537 127.333,133.200 128.510,133.200 129.263 C 133.200 130.015,132.834 131.344,132.387 132.215 C 131.940 133.087,131.460 134.880,131.320 136.200 C 131.180 137.520,130.737 139.140,130.334 139.800 C 129.859 140.581,129.619 141.699,129.649 143.000 L 129.694 145.000 130.012 143.200 C 130.186 142.210,130.615 140.731,130.965 139.913 C 131.314 139.095,131.601 137.925,131.602 137.313 C 131.603 136.701,132.049 134.940,132.593 133.400 C 133.138 131.860,133.587 130.188,133.592 129.684 C 133.596 129.180,133.934 128.100,134.343 127.284 C 134.752 126.468,135.199 124.944,135.336 123.897 C 135.473 122.850,135.839 121.590,136.148 121.097 C 136.457 120.604,136.834 119.480,136.985 118.600 C 137.136 117.720,137.527 116.584,137.855 116.076 C 138.651 114.840,138.379 114.234,137.535 115.366 M120.870 132.085 C 120.831 132.682,120.440 134.084,120.000 135.200 C 119.560 136.316,119.194 137.808,119.187 138.515 C 119.180 139.222,118.826 140.790,118.400 142.000 C 117.400 144.844,117.405 145.324,118.420 143.659 C 118.919 142.841,119.328 141.282,119.470 139.659 C 119.605 138.113,120.026 136.462,120.475 135.714 C 121.015 134.815,121.201 133.914,121.094 132.714 C 121.009 131.771,120.908 131.488,120.870 132.085 M282.609 148.451 C 282.675 150.313,282.953 151.872,283.321 152.451 C 283.656 152.978,284.047 154.913,284.199 156.800 C 284.351 158.670,284.735 160.737,285.053 161.394 C 285.379 162.065,285.817 164.954,286.053 167.994 C 286.284 170.967,286.727 174.383,287.037 175.584 C 287.911 178.976,287.879 367.429,287.003 368.396 C 286.675 368.759,286.222 370.028,285.997 371.215 C 285.772 372.403,285.320 373.525,284.994 373.707 C 284.667 373.890,284.400 374.377,284.400 374.789 C 284.400 375.201,283.950 376.073,283.400 376.727 C 282.850 377.381,282.400 378.060,282.400 378.236 C 282.400 378.862,280.171 381.781,278.171 383.776 C 273.919 388.017,271.958 389.540,268.949 390.937 C 268.261 391.257,267.585 391.701,267.447 391.924 C 267.309 392.148,266.493 392.449,265.634 392.594 C 264.774 392.740,263.757 393.205,263.374 393.629 C 262.481 394.616,262.841 394.607,264.490 393.601 C 265.211 393.162,266.177 392.802,266.639 392.801 C 267.100 392.801,267.870 392.460,268.349 392.044 C 268.828 391.629,269.756 391.067,270.410 390.796 C 271.065 390.525,271.600 390.164,271.600 389.995 C 271.600 389.825,272.009 389.584,272.509 389.459 C 273.700 389.160,281.938 380.647,282.623 379.007 C 282.915 378.308,283.417 377.518,283.738 377.252 C 284.059 376.985,284.440 376.294,284.586 375.715 C 284.731 375.137,285.198 374.220,285.625 373.678 C 286.051 373.136,286.400 372.259,286.400 371.730 C 286.400 371.201,286.747 370.088,287.172 369.256 C 288.566 366.522,288.644 177.737,287.252 172.518 C 287.006 171.593,286.640 168.983,286.439 166.718 C 286.239 164.453,285.797 161.790,285.457 160.800 C 285.117 159.810,284.725 157.740,284.585 156.200 C 284.445 154.660,283.993 152.320,283.580 151.000 C 283.168 149.680,282.756 147.880,282.665 147.000 C 282.574 146.120,282.549 146.773,282.609 148.451 M117.274 147.400 C 117.233 148.280,116.840 149.947,116.400 151.104 C 115.960 152.262,115.600 154.073,115.600 155.129 C 115.600 156.185,115.231 158.459,114.779 160.182 C 114.328 161.905,113.796 165.134,113.596 167.357 C 113.396 169.581,113.046 172.370,112.817 173.555 C 112.587 174.740,112.412 176.180,112.427 176.755 C 112.496 179.470,113.617 173.712,114.052 168.400 C 114.314 165.210,114.779 162.096,115.085 161.479 C 115.391 160.863,115.746 158.793,115.873 156.879 C 116.014 154.772,116.408 152.721,116.873 151.678 C 117.406 150.481,117.596 149.322,117.494 147.878 C 117.369 146.104,117.337 146.034,117.274 147.400 M111.998 234.000 C 111.635 336.838,111.809 366.824,112.779 368.953 C 113.230 369.945,113.600 370.972,113.600 371.236 C 113.600 371.677,115.405 375.430,117.225 378.777 C 117.637 379.534,118.250 380.308,118.587 380.497 C 118.924 380.685,119.200 381.046,119.200 381.297 C 119.200 381.947,127.164 389.600,127.840 389.600 C 128.148 389.600,128.402 389.735,128.403 389.900 C 128.407 390.193,131.183 391.663,135.600 393.709 C 139.551 395.540,191.300 396.551,232.400 395.602 C 269.241 394.750,264.425 394.600,200.333 394.600 L 138.067 394.600 136.933 393.766 C 136.310 393.307,135.260 392.800,134.600 392.639 C 133.940 392.478,132.950 392.052,132.400 391.694 C 131.850 391.335,130.414 390.513,129.209 389.868 C 127.067 388.721,125.162 387.153,122.648 384.467 C 118.918 380.483,118.267 379.695,117.780 378.568 C 117.486 377.891,116.966 377.104,116.623 376.819 C 116.280 376.535,116.000 375.988,116.000 375.605 C 116.000 375.222,115.655 374.469,115.233 373.933 C 114.811 373.396,114.341 372.247,114.188 371.379 C 114.035 370.510,113.615 369.350,113.255 368.800 C 112.654 367.883,112.583 359.912,112.398 272.800 C 112.199 179.043,112.194 178.535,111.998 234.000 "
              stroke="none" fill="#747474" fill-rule="evenodd"></path>
        <path id="path4"
              d="M148.800 4.000 C 148.293 4.440,147.569 4.800,147.193 4.800 C 146.816 4.800,146.079 5.135,145.554 5.545 C 145.029 5.955,144.213 6.411,143.740 6.559 C 142.486 6.952,138.791 10.724,138.144 12.272 C 137.839 13.002,137.415 13.600,137.202 13.600 C 136.989 13.600,136.704 14.043,136.568 14.584 C 136.433 15.125,136.069 15.777,135.761 16.033 C 134.906 16.742,134.941 43.165,135.800 45.600 C 136.130 46.535,136.400 47.728,136.400 48.250 C 136.400 48.773,136.742 49.542,137.161 49.961 C 137.579 50.379,138.048 51.123,138.204 51.613 C 138.566 52.753,142.966 57.075,144.122 57.427 C 144.605 57.574,145.270 57.928,145.600 58.213 C 145.930 58.498,146.830 58.894,147.600 59.093 C 149.219 59.511,149.362 60.960,147.960 62.742 C 147.542 63.273,147.200 63.973,147.200 64.296 C 147.200 64.620,146.750 65.419,146.200 66.073 C 145.650 66.727,145.200 67.518,145.200 67.831 C 145.200 68.144,144.840 68.760,144.400 69.200 C 143.960 69.640,143.600 70.332,143.600 70.739 C 143.600 71.145,143.235 71.898,142.789 72.413 C 142.343 72.927,141.868 73.809,141.733 74.374 C 141.598 74.938,141.153 75.722,140.744 76.116 C 140.335 76.509,140.000 77.160,140.000 77.562 C 140.000 77.963,139.667 78.721,139.261 79.246 C 138.855 79.771,138.393 80.726,138.236 81.368 C 138.079 82.011,137.602 82.980,137.175 83.522 C 136.749 84.064,136.400 84.912,136.400 85.405 C 136.400 85.898,136.139 86.518,135.820 86.783 C 135.502 87.048,135.048 87.849,134.812 88.565 C 134.576 89.280,134.026 90.564,133.591 91.417 C 133.156 92.271,132.799 93.246,132.797 93.585 C 132.796 93.923,132.437 94.740,132.000 95.400 C 131.563 96.060,131.204 97.071,131.203 97.646 C 131.201 98.221,130.829 99.164,130.376 99.740 C 129.923 100.316,129.445 101.465,129.315 102.294 C 129.184 103.122,128.745 104.229,128.339 104.754 C 127.932 105.279,127.594 106.179,127.587 106.754 C 127.581 107.329,127.132 108.700,126.591 109.800 C 126.050 110.900,125.606 112.326,125.604 112.969 C 125.602 113.611,125.332 114.434,125.003 114.796 C 124.675 115.159,124.230 116.387,124.014 117.525 C 123.798 118.664,123.367 120.001,123.057 120.498 C 122.746 120.994,122.380 122.310,122.243 123.422 C 122.105 124.534,121.635 126.147,121.197 127.007 C 120.758 127.866,120.400 129.301,120.400 130.196 C 120.400 131.090,120.137 132.197,119.817 132.655 C 119.496 133.113,119.040 134.728,118.803 136.244 C 118.566 137.760,118.122 139.540,117.816 140.200 C 117.510 140.860,117.134 142.570,116.979 144.000 C 116.825 145.430,116.439 147.230,116.121 148.000 C 115.803 148.770,115.385 150.899,115.193 152.730 C 115.000 154.562,114.563 156.812,114.222 157.730 C 113.880 158.649,113.436 161.200,113.235 163.400 C 113.033 165.600,112.589 168.480,112.246 169.800 C 111.699 171.911,110.817 242.928,110.977 272.000 C 110.990 274.310,110.853 288.710,110.674 304.000 C 110.207 343.835,111.081 371.200,112.819 371.200 C 112.978 371.200,113.228 371.989,113.372 372.954 C 113.517 373.919,113.987 375.026,114.418 375.416 C 114.848 375.805,115.200 376.430,115.200 376.804 C 115.200 377.177,115.650 377.969,116.200 378.562 C 116.750 379.156,117.200 379.812,117.200 380.021 C 117.200 380.455,117.354 380.639,121.462 385.100 C 123.134 386.915,124.705 388.400,124.954 388.400 C 125.204 388.400,125.632 388.760,125.907 389.200 C 126.182 389.640,126.632 390.000,126.907 390.000 C 127.182 390.000,127.632 390.360,127.907 390.800 C 128.182 391.240,128.730 391.600,129.126 391.600 C 129.521 391.600,130.455 392.050,131.200 392.600 C 131.945 393.150,132.970 393.600,133.478 393.600 C 133.985 393.600,134.400 393.768,134.400 393.973 C 134.400 394.432,135.094 394.657,139.738 395.703 C 143.900 396.640,238.839 397.266,252.600 396.447 C 259.965 396.008,265.600 394.952,265.600 394.008 C 265.600 393.840,266.327 393.586,267.215 393.444 C 268.104 393.302,268.929 392.930,269.049 392.617 C 269.169 392.305,269.800 391.932,270.452 391.788 C 271.105 391.645,271.853 391.184,272.115 390.764 C 272.378 390.344,272.785 390.000,273.020 390.000 C 273.505 390.000,276.683 387.294,278.656 385.200 C 279.381 384.430,280.341 383.421,280.787 382.958 C 281.234 382.495,281.600 381.929,281.600 381.701 C 281.600 381.472,281.855 381.188,282.166 381.068 C 282.734 380.851,283.403 379.801,284.630 377.207 C 284.992 376.440,285.629 375.381,286.044 374.853 C 286.460 374.324,286.800 373.459,286.800 372.930 C 286.800 372.401,287.205 371.420,287.700 370.750 C 288.973 369.029,289.208 346.963,288.941 254.200 C 288.733 181.822,288.547 169.770,287.609 168.017 C 287.340 167.515,286.963 165.280,286.772 163.052 C 286.580 160.823,286.161 158.370,285.840 157.600 C 285.520 156.830,285.068 154.603,284.837 152.651 C 284.605 150.699,284.249 148.899,284.045 148.651 C 283.842 148.403,283.558 147.300,283.415 146.200 C 283.018 143.152,282.355 140.400,282.018 140.400 C 281.852 140.400,281.605 139.214,281.470 137.765 C 281.334 136.316,280.937 134.561,280.586 133.865 C 280.236 133.169,279.845 131.700,279.718 130.600 C 279.591 129.500,279.176 127.970,278.796 127.200 C 278.416 126.430,277.977 124.900,277.821 123.800 C 277.665 122.700,277.309 121.440,277.029 121.000 C 276.750 120.560,276.392 119.480,276.235 118.600 C 276.077 117.720,275.600 116.319,275.174 115.488 C 274.748 114.656,274.399 113.486,274.399 112.888 C 274.398 112.289,274.059 111.245,273.645 110.567 C 273.231 109.888,272.767 108.589,272.613 107.678 C 272.459 106.768,271.989 105.585,271.567 105.049 C 271.145 104.513,270.800 103.541,270.800 102.891 C 270.800 102.240,270.437 101.246,269.993 100.682 C 269.549 100.118,269.028 98.811,268.835 97.778 C 268.642 96.745,268.304 95.787,268.084 95.650 C 267.863 95.512,267.483 94.656,267.239 93.747 C 266.994 92.837,266.549 91.889,266.248 91.640 C 265.948 91.391,265.600 90.557,265.475 89.787 C 265.350 89.017,264.877 87.916,264.424 87.340 C 263.971 86.764,263.600 85.981,263.600 85.600 C 263.600 85.219,263.267 84.479,262.861 83.954 C 262.455 83.429,261.991 82.460,261.830 81.800 C 261.669 81.140,261.304 80.330,261.019 80.000 C 260.734 79.670,260.290 78.741,260.031 77.935 C 259.773 77.130,259.326 76.380,259.038 76.270 C 258.749 76.159,258.411 75.556,258.286 74.929 C 258.160 74.302,257.685 73.359,257.229 72.833 C 256.773 72.308,256.400 71.573,256.400 71.201 C 256.400 70.829,256.040 70.198,255.600 69.800 C 255.160 69.402,254.800 68.742,254.800 68.334 C 254.800 67.926,254.440 67.284,254.000 66.907 C 253.560 66.530,253.200 65.911,253.200 65.532 C 253.200 65.152,252.750 64.356,252.200 63.762 C 251.650 63.169,251.197 62.304,251.194 61.842 C 251.191 61.379,251.019 60.733,250.813 60.408 C 250.439 59.816,250.979 59.441,255.000 57.503 C 255.660 57.184,256.447 56.626,256.749 56.262 C 257.051 55.898,257.452 55.600,257.640 55.600 C 258.214 55.600,262.000 51.580,262.000 50.970 C 262.000 50.657,262.189 50.400,262.421 50.400 C 262.653 50.400,263.383 49.244,264.045 47.830 L 265.247 45.261 265.124 31.072 C 265.012 18.225,264.934 16.810,264.300 16.110 C 263.915 15.685,263.600 15.064,263.600 14.730 C 263.600 14.397,263.245 13.802,262.810 13.409 C 262.376 13.016,261.905 12.330,261.763 11.885 C 261.446 10.883,257.353 6.902,256.296 6.567 C 255.870 6.432,255.179 5.979,254.761 5.561 C 254.342 5.142,253.685 4.799,253.300 4.797 C 252.915 4.796,252.060 4.437,251.400 4.000 C 249.505 2.745,150.247 2.745,148.800 4.000 M250.705 4.390 C 251.087 4.604,252.030 5.057,252.800 5.396 C 256.719 7.121,260.953 10.678,261.451 12.662 C 261.581 13.178,261.831 13.600,262.008 13.600 C 264.182 13.600,265.074 44.849,263.000 48.350 C 262.560 49.093,261.971 50.116,261.691 50.623 C 260.626 52.554,255.804 56.479,252.701 57.940 C 250.997 58.743,249.602 59.563,249.601 59.761 C 249.600 60.204,251.313 63.627,252.623 65.800 C 253.154 66.680,253.960 68.120,254.415 69.000 C 254.870 69.880,255.727 71.464,256.321 72.521 C 257.411 74.460,260.878 81.309,262.643 85.006 C 263.169 86.109,263.600 87.212,263.600 87.457 C 263.600 87.702,263.858 88.117,264.174 88.379 C 264.490 88.641,264.870 89.428,265.017 90.128 C 265.165 90.827,265.627 91.961,266.043 92.647 C 266.459 93.333,266.806 94.143,266.813 94.447 C 266.819 94.751,267.268 95.900,267.809 97.000 C 268.350 98.100,268.794 99.249,268.796 99.553 C 268.798 99.857,269.138 100.667,269.551 101.353 C 269.965 102.039,270.430 103.320,270.585 104.200 C 270.741 105.080,271.130 106.093,271.451 106.450 C 271.772 106.808,272.144 107.798,272.279 108.650 C 272.413 109.503,272.855 110.827,273.262 111.594 C 273.668 112.361,274.000 113.358,274.000 113.809 C 274.000 114.261,274.339 115.296,274.754 116.109 C 275.168 116.922,275.623 118.360,275.765 119.304 C 275.906 120.249,276.296 121.548,276.630 122.193 C 276.964 122.837,277.345 124.182,277.476 125.182 C 277.607 126.182,278.023 127.630,278.402 128.400 C 278.780 129.170,279.215 130.773,279.367 131.963 C 279.519 133.152,279.903 134.626,280.220 135.239 C 280.537 135.852,280.981 137.655,281.206 139.246 C 281.432 140.836,281.789 142.346,282.000 142.600 C 282.211 142.854,282.572 144.392,282.803 146.018 C 283.033 147.645,283.577 150.125,284.011 151.530 C 284.445 152.935,284.800 154.892,284.800 155.880 C 284.800 156.868,285.141 158.874,285.559 160.338 C 285.976 161.802,286.507 164.710,286.739 166.800 C 286.970 168.890,287.440 172.684,287.782 175.232 C 288.764 182.530,288.525 367.119,287.532 369.200 C 287.164 369.970,286.748 371.050,286.607 371.600 C 286.467 372.150,285.872 373.590,285.286 374.800 C 284.309 376.817,283.578 378.043,281.711 380.800 C 280.267 382.932,273.486 389.205,271.300 390.433 C 270.035 391.143,268.730 391.943,268.400 392.212 C 268.070 392.480,267.080 392.929,266.200 393.210 C 265.320 393.491,264.234 393.959,263.786 394.250 C 260.071 396.664,139.895 396.496,135.889 394.071 C 135.180 393.642,134.150 393.157,133.600 392.992 C 129.320 391.712,117.200 381.347,117.200 378.965 C 117.200 378.686,116.964 378.219,116.675 377.929 C 115.937 377.186,113.600 372.503,113.600 371.766 C 113.600 371.431,113.195 370.311,112.700 369.278 L 111.800 367.400 111.829 272.800 C 111.850 207.032,111.991 177.286,112.293 175.200 C 112.531 173.550,112.934 170.490,113.188 168.400 C 113.441 166.310,113.917 163.340,114.245 161.800 C 114.573 160.260,115.077 157.380,115.365 155.400 C 115.653 153.420,116.175 150.630,116.527 149.200 C 116.878 147.770,117.339 145.700,117.553 144.600 C 118.110 141.725,119.148 137.406,120.005 134.400 C 120.413 132.970,120.860 131.107,120.999 130.260 C 121.138 129.413,121.487 128.153,121.775 127.460 C 122.063 126.767,122.577 125.120,122.918 123.800 C 124.215 118.770,124.517 117.748,125.229 116.000 C 125.632 115.010,126.084 113.573,126.234 112.806 C 126.383 112.039,126.734 111.049,127.013 110.606 C 127.293 110.163,127.651 109.170,127.810 108.400 C 127.968 107.630,128.411 106.370,128.795 105.600 C 129.178 104.830,129.611 103.543,129.757 102.740 C 129.902 101.937,130.268 101.076,130.569 100.826 C 130.870 100.576,131.240 99.703,131.392 98.886 C 131.543 98.069,132.012 96.839,132.434 96.153 C 132.855 95.467,133.200 94.602,133.200 94.232 C 133.200 93.862,133.551 92.893,133.981 92.079 C 134.411 91.266,135.108 89.790,135.530 88.800 C 136.651 86.171,138.772 81.510,139.216 80.700 C 139.840 79.562,140.286 78.663,140.754 77.600 C 140.996 77.050,141.376 76.330,141.597 76.000 C 141.819 75.670,142.191 74.950,142.424 74.400 C 142.658 73.850,143.367 72.500,144.000 71.400 C 144.633 70.300,145.355 68.950,145.604 68.401 C 145.852 67.851,146.292 67.131,146.581 66.801 C 146.869 66.470,147.242 65.753,147.409 65.208 C 147.576 64.662,148.037 63.762,148.435 63.208 C 149.579 61.611,149.861 59.264,148.944 58.969 C 144.904 57.668,140.452 54.107,138.173 50.355 L 136.704 47.938 136.373 41.069 C 136.191 37.291,136.032 30.366,136.021 25.680 C 135.999 16.725,136.034 16.509,137.999 13.600 C 138.371 13.050,139.167 11.849,139.770 10.932 C 141.087 8.924,144.336 6.620,148.200 4.953 L 150.200 4.089 200.105 4.045 C 231.859 4.016,250.263 4.142,250.705 4.390 M150.876 17.032 C 146.796 19.889,146.864 44.362,150.956 45.841 C 153.130 46.627,247.625 46.652,249.249 45.867 C 249.606 45.695,250.384 44.660,250.979 43.568 L 252.060 41.582 251.916 31.291 C 251.757 19.867,251.375 17.955,249.033 16.888 C 247.202 16.054,152.074 16.193,150.876 17.032 M248.997 17.835 C 250.100 18.112,250.217 18.387,250.767 22.000 C 252.189 31.343,251.499 42.666,249.376 44.800 L 248.382 45.800 200.064 45.800 L 151.747 45.800 150.706 44.676 C 148.294 42.074,147.801 28.151,149.808 19.310 C 150.256 17.339,148.751 17.394,199.990 17.495 C 226.407 17.547,248.461 17.700,248.997 17.835 M164.675 60.322 C 164.084 60.939,163.600 61.659,163.600 61.922 C 163.600 62.185,163.424 62.400,163.208 62.400 C 162.993 62.400,162.446 63.075,161.993 63.900 C 161.541 64.725,160.733 66.120,160.199 67.000 C 159.665 67.880,158.942 69.203,158.592 69.941 C 158.242 70.678,157.776 71.488,157.556 71.741 C 157.096 72.271,155.995 74.276,154.858 76.656 C 154.422 77.567,153.885 78.424,153.664 78.561 C 153.443 78.697,153.146 79.335,153.005 79.977 C 152.864 80.619,152.502 81.350,152.200 81.600 C 151.898 81.850,151.526 82.628,151.374 83.328 C 151.221 84.027,150.759 85.029,150.348 85.554 C 149.937 86.079,149.600 86.819,149.600 87.200 C 149.600 87.581,149.257 88.328,148.839 88.860 C 148.420 89.393,147.873 90.587,147.623 91.514 C 147.373 92.441,147.025 93.200,146.848 93.200 C 146.671 93.200,146.298 93.963,146.018 94.897 C 145.739 95.830,145.260 96.950,144.955 97.386 C 144.650 97.821,144.400 98.441,144.400 98.763 C 144.400 99.084,144.050 100.079,143.623 100.974 C 142.672 102.964,141.700 105.586,140.994 108.066 C 140.702 109.093,140.192 110.353,139.861 110.866 C 139.530 111.380,139.129 112.520,138.971 113.400 C 138.812 114.280,138.349 115.627,137.941 116.394 C 137.534 117.161,137.200 118.203,137.200 118.710 C 137.200 119.217,136.862 120.300,136.448 121.116 C 136.034 121.932,135.563 123.410,135.400 124.400 C 135.237 125.390,134.766 126.868,134.352 127.684 C 133.938 128.500,133.600 129.602,133.600 130.133 C 133.600 130.664,133.150 132.476,132.600 134.161 C 132.050 135.846,131.599 137.714,131.598 138.312 C 131.596 138.911,131.345 139.879,131.040 140.464 C 130.735 141.049,130.365 142.489,130.217 143.664 C 130.070 144.839,129.615 147.060,129.206 148.600 C 128.796 150.140,128.269 152.660,128.034 154.200 C 127.799 155.740,127.339 158.170,127.012 159.600 C 126.684 161.030,126.410 163.010,126.402 164.000 C 126.394 164.990,126.114 166.880,125.779 168.200 C 124.246 174.251,123.575 247.972,124.349 325.257 L 124.777 367.915 125.726 369.699 C 127.804 373.608,133.026 379.234,135.558 380.292 C 136.336 380.617,137.159 381.108,137.386 381.384 C 138.890 383.205,138.036 383.173,192.094 383.435 C 262.943 383.778,261.667 383.898,269.394 376.134 C 273.507 372.001,274.781 369.239,275.363 363.200 C 276.064 355.911,276.374 296.058,275.998 240.400 C 275.601 181.713,275.393 173.201,274.206 167.065 C 273.873 165.340,273.600 163.168,273.600 162.237 C 273.600 161.307,273.318 159.597,272.974 158.438 C 272.630 157.278,272.096 154.771,271.787 152.865 C 271.478 150.959,270.950 148.416,270.613 147.213 C 270.276 146.010,270.000 144.622,270.000 144.128 C 270.000 143.634,269.640 142.316,269.200 141.200 C 268.760 140.084,268.392 138.592,268.382 137.885 C 268.373 137.178,268.087 135.880,267.746 135.000 C 267.406 134.120,266.903 132.320,266.629 131.000 C 266.355 129.680,265.856 128.060,265.521 127.400 C 265.185 126.740,264.792 125.422,264.646 124.472 C 264.501 123.521,264.134 122.351,263.831 121.872 C 263.527 121.392,263.092 120.096,262.864 118.992 C 262.635 117.887,262.168 116.447,261.826 115.792 C 261.485 115.136,261.204 114.252,261.202 113.826 C 261.201 113.401,260.862 112.321,260.448 111.426 C 260.035 110.532,259.426 108.990,259.094 108.000 C 257.869 104.338,257.495 103.367,256.756 101.921 C 256.340 101.107,256.000 100.205,256.000 99.915 C 256.000 99.625,255.657 98.748,255.237 97.965 C 254.818 97.183,254.249 95.788,253.973 94.866 C 253.696 93.945,253.230 92.991,252.935 92.746 C 252.641 92.502,252.400 92.027,252.400 91.691 C 252.400 91.146,250.860 87.578,249.943 86.000 C 249.752 85.670,249.483 85.130,249.346 84.800 C 248.398 82.518,246.329 78.403,246.039 78.224 C 245.846 78.105,245.565 77.511,245.415 76.904 C 245.264 76.297,244.815 75.440,244.416 75.000 C 244.018 74.560,243.560 73.750,243.399 73.200 C 243.237 72.650,242.862 71.922,242.564 71.581 C 242.267 71.241,241.555 70.071,240.982 68.981 C 240.000 67.112,238.821 65.190,237.137 62.716 C 236.732 62.120,236.400 61.458,236.400 61.245 C 236.400 59.162,237.079 59.200,200.021 59.200 L 165.750 59.200 164.675 60.322 M234.584 60.558 C 235.607 61.089,236.376 62.181,237.784 65.100 C 238.129 65.815,238.574 66.400,238.774 66.400 C 238.974 66.400,239.350 67.043,239.609 67.828 C 239.868 68.613,240.332 69.353,240.640 69.471 C 240.948 69.589,241.200 70.002,241.200 70.389 C 241.200 70.776,241.566 71.558,242.014 72.127 C 242.462 72.697,243.020 73.711,243.253 74.381 C 243.487 75.052,243.819 75.600,243.991 75.600 C 244.162 75.600,244.534 76.185,244.817 76.900 C 245.100 77.615,245.549 78.470,245.815 78.800 C 246.081 79.130,246.511 80.061,246.770 80.868 C 247.029 81.675,247.502 82.552,247.820 82.817 C 248.139 83.082,248.400 83.645,248.400 84.070 C 248.400 84.495,248.850 85.505,249.400 86.314 C 249.950 87.123,250.400 88.172,250.400 88.644 C 250.400 89.116,250.674 89.729,251.008 90.007 C 251.343 90.285,251.813 91.291,252.053 92.244 C 252.293 93.196,252.739 94.183,253.044 94.437 C 253.350 94.690,253.600 95.209,253.600 95.589 C 253.600 95.970,254.050 97.127,254.600 98.162 C 255.150 99.196,255.601 100.348,255.603 100.721 C 255.604 101.095,255.963 101.940,256.400 102.600 C 256.837 103.260,257.196 104.167,257.197 104.615 C 257.199 105.064,257.537 106.091,257.948 106.899 C 258.360 107.706,258.908 109.204,259.166 110.229 C 259.424 111.254,259.897 112.354,260.217 112.674 C 260.538 112.995,260.801 113.829,260.801 114.529 C 260.802 115.228,261.149 116.367,261.571 117.059 C 261.993 117.752,262.464 119.192,262.617 120.259 C 262.769 121.327,263.210 122.740,263.596 123.400 C 263.981 124.060,264.411 125.487,264.550 126.571 C 264.690 127.655,265.061 128.826,265.375 129.173 C 265.689 129.520,266.072 130.793,266.225 132.002 C 266.378 133.211,266.816 134.920,267.199 135.800 C 267.582 136.680,268.015 138.476,268.162 139.792 C 268.309 141.108,268.692 142.586,269.014 143.078 C 269.336 143.570,269.600 144.509,269.600 145.166 C 269.600 146.779,270.402 150.486,270.879 151.080 C 271.091 151.344,271.417 153.054,271.603 154.880 C 271.789 156.706,272.201 159.010,272.519 160.000 C 272.836 160.990,273.224 163.780,273.380 166.200 C 273.536 168.620,273.965 171.860,274.332 173.400 C 275.359 177.703,275.361 362.824,274.334 365.600 C 273.968 366.590,273.549 368.278,273.402 369.351 C 273.074 371.753,265.858 379.473,263.100 380.373 C 262.275 380.642,261.600 381.002,261.600 381.173 C 261.600 382.382,242.000 382.690,178.400 382.478 C 140.742 382.353,138.969 382.278,137.484 380.741 C 137.091 380.333,136.579 380.000,136.348 380.000 C 135.482 380.000,128.800 374.033,128.800 373.260 C 128.800 373.090,128.480 372.602,128.090 372.175 C 127.699 371.749,126.844 370.334,126.190 369.032 L 125.000 366.663 125.000 271.032 C 125.000 180.750,125.039 175.277,125.706 173.200 C 126.094 171.990,126.567 168.825,126.756 166.167 C 126.945 163.509,127.314 160.934,127.577 160.444 C 127.839 159.954,128.220 157.941,128.424 155.972 C 128.628 154.003,129.156 151.319,129.597 150.008 C 130.039 148.698,130.400 146.891,130.400 145.993 C 130.400 145.095,130.666 143.846,130.990 143.219 C 131.315 142.591,131.785 140.763,132.034 139.158 C 132.283 137.553,132.720 135.871,133.005 135.420 C 133.290 134.969,133.654 133.612,133.813 132.404 C 133.972 131.196,134.439 129.579,134.851 128.810 C 135.263 128.041,135.600 126.862,135.600 126.191 C 135.600 125.519,135.964 124.256,136.408 123.385 C 136.853 122.513,137.327 120.855,137.463 119.700 C 137.599 118.545,137.844 117.600,138.007 117.600 C 138.397 117.600,139.077 115.777,139.388 113.900 C 139.524 113.075,139.772 112.400,139.938 112.400 C 140.360 112.400,141.200 109.951,141.200 108.721 C 141.200 108.158,141.465 107.478,141.789 107.209 C 142.114 106.940,142.490 106.063,142.627 105.260 C 142.763 104.457,143.196 103.342,143.588 102.783 C 143.981 102.223,144.430 101.008,144.586 100.083 C 144.742 99.157,145.006 98.400,145.171 98.400 C 145.576 98.400,146.400 96.542,146.400 95.630 C 146.400 95.227,146.669 94.675,146.997 94.402 C 147.326 94.130,147.792 93.163,148.034 92.253 C 148.276 91.344,148.714 90.330,149.006 90.000 C 149.298 89.670,149.669 88.860,149.830 88.200 C 149.991 87.540,150.455 86.571,150.861 86.046 C 151.267 85.521,151.600 84.781,151.600 84.400 C 151.600 84.019,151.962 83.248,152.404 82.686 C 152.845 82.125,153.316 81.122,153.448 80.458 C 153.581 79.794,153.921 79.162,154.205 79.054 C 154.488 78.945,154.943 78.168,155.216 77.328 C 155.490 76.488,155.958 75.656,156.257 75.480 C 156.555 75.304,156.800 74.823,156.800 74.411 C 156.800 73.999,157.250 73.127,157.800 72.473 C 158.350 71.819,158.800 70.949,158.800 70.538 C 158.800 70.128,159.144 69.578,159.564 69.315 C 159.984 69.053,160.449 68.290,160.596 67.619 C 160.743 66.949,161.033 66.400,161.240 66.400 C 161.448 66.400,161.831 65.905,162.093 65.300 C 162.355 64.695,162.981 63.691,163.484 63.069 C 163.988 62.447,164.400 61.725,164.400 61.464 C 164.400 60.167,166.123 60.098,199.854 60.049 C 227.935 60.008,233.687 60.092,234.584 60.558 "
              stroke="none" fill="black" fill-rule="evenodd"></path>
    </g>
</svg>
