<svg id="ball" version="1.1" xmlns="http://www.w3.org/2000/svg" xmlns:xlink="http://www.w3.org/1999/xlink" width="400" height="400"
     viewBox="0, 0, 400,400">
    <g id="svgg">
        <path id="path0"
              d="M191.833 9.017 C 52.689 14.717,-33.850 163.986,30.150 287.904 C 89.369 402.565,243.845 426.505,335.175 335.175 C 431.995 238.354,398.023 72.822,270.983 22.394 C 248.844 13.606,217.553 7.692,198.667 8.726 C 198.208 8.751,195.133 8.882,191.833 9.017 M210.667 11.171 C 227.727 11.880,259.343 18.446,263.637 22.173 C 264.112 22.585,266.300 24.388,268.500 26.180 C 282.768 37.803,292.759 48.307,299.391 58.657 C 300.269 60.026,300.877 61.248,300.743 61.372 C 300.610 61.497,298.850 62.297,296.833 63.151 C 287.168 67.243,275.043 74.520,260.578 84.908 L 254.323 89.401 249.912 87.403 C 229.442 78.132,201.274 71.526,170.617 68.807 C 167.369 68.519,168.163 69.326,162.587 60.647 C 153.089 45.865,145.878 36.417,140.934 32.278 L 139.280 30.893 141.523 29.449 C 153.149 21.969,174.592 14.941,196.167 11.540 C 201.046 10.771,201.284 10.750,203.833 10.872 C 205.117 10.934,208.192 11.068,210.667 11.171 M182.000 12.495 C 163.531 16.767,149.751 22.015,139.549 28.663 C 136.653 30.550,134.725 31.477,129.883 33.311 C 111.695 40.200,96.086 48.036,76.667 60.026 C 71.458 63.241,70.780 63.573,70.333 63.121 C 69.775 62.555,69.362 62.988,76.043 57.143 C 102.924 33.626,136.961 17.971,172.333 12.854 C 184.759 11.057,188.883 10.904,182.000 12.495 M274.415 26.041 C 318.333 44.770,354.497 80.669,373.434 124.333 C 376.168 130.638,376.470 131.513,375.726 130.967 C 371.211 127.656,369.765 126.723,367.421 125.610 C 365.911 124.892,363.586 124.032,362.255 123.698 C 359.865 123.098,359.814 123.063,358.355 120.962 C 347.158 104.835,332.625 88.842,310.833 68.668 C 304.154 62.485,303.312 61.580,301.392 58.523 C 294.929 48.234,285.669 38.194,272.356 27.044 C 267.819 23.245,267.837 23.236,274.415 26.041 M65.562 72.727 C 57.030 89.876,52.851 103.767,51.611 119.099 L 51.201 124.167 47.797 127.833 C 32.497 144.312,20.159 167.553,15.004 189.606 C 14.556 191.522,13.944 192.000,11.938 192.000 L 10.920 192.000 11.150 188.417 C 14.076 142.678,33.064 99.968,64.792 67.753 C 70.432 62.027,70.540 62.723,65.562 72.727 M181.592 71.838 C 210.460 75.473,232.423 81.090,249.783 89.279 C 252.831 90.717,253.419 91.123,253.811 92.064 C 254.064 92.671,256.921 100.504,260.159 109.472 C 267.043 128.536,274.323 148.300,277.644 156.945 L 279.991 163.057 276.079 168.086 C 260.352 188.302,241.314 208.493,220.477 227.055 C 219.804 227.655,219.294 227.584,198.477 223.997 C 186.756 221.977,168.617 218.904,158.167 217.169 C 147.717 215.434,138.808 213.899,138.370 213.757 C 135.693 212.893,122.401 185.878,117.660 171.667 C 112.971 157.608,109.911 138.088,111.127 129.981 C 111.652 126.482,128.901 107.670,154.605 82.564 L 167.167 70.294 169.833 70.494 C 171.300 70.603,176.591 71.208,181.592 71.838 M362.882 125.705 C 367.183 127.032,371.073 129.344,375.447 133.174 L 377.928 135.347 379.450 139.923 C 391.534 176.272,392.349 215.519,381.787 252.500 C 380.548 256.838,377.182 266.891,376.845 267.258 C 376.799 267.308,375.294 266.427,373.501 265.300 C 371.707 264.172,368.348 262.360,366.036 261.272 C 363.725 260.185,361.458 259.110,361.000 258.885 L 360.167 258.474 359.593 249.321 C 357.609 217.659,354.292 198.431,348.103 182.708 C 347.282 180.623,346.686 178.673,346.778 178.375 C 346.870 178.077,347.497 176.333,348.170 174.500 C 350.962 166.895,353.294 157.584,357.311 138.000 C 360.188 123.978,359.952 125.000,360.305 125.000 C 360.465 125.000,361.625 125.317,362.882 125.705 M59.500 126.325 C 62.067 126.692,66.342 127.212,69.000 127.481 C 73.515 127.939,76.612 128.107,97.000 129.006 C 101.308 129.196,105.823 129.441,107.033 129.552 L 109.234 129.753 109.442 136.627 C 110.145 159.764,118.101 183.997,133.555 210.063 C 136.145 214.432,136.241 213.552,132.626 218.593 C 122.180 233.161,112.520 250.372,103.495 270.500 C 102.261 273.250,100.830 276.438,100.314 277.583 L 99.375 279.667 91.604 279.665 C 66.379 279.660,53.739 276.674,42.444 268.053 C 32.358 260.355,18.567 223.204,15.811 196.309 C 15.164 189.993,23.827 166.411,32.089 152.000 C 38.824 140.252,51.305 125.009,53.812 125.470 C 54.374 125.573,56.933 125.958,59.500 126.325 M296.095 168.310 C 318.818 174.440,332.551 177.786,340.667 179.167 C 345.267 179.950,345.077 179.804,346.604 183.727 C 351.467 196.215,354.452 210.682,356.495 231.667 C 357.084 237.718,358.325 255.414,358.330 257.843 C 358.334 259.602,350.825 270.256,337.137 287.914 C 322.494 306.803,309.963 318.385,303.141 319.335 C 290.729 321.062,270.899 319.689,257.500 316.175 C 247.734 313.614,233.333 307.830,233.333 306.468 C 233.333 305.767,231.874 291.060,230.642 279.333 C 228.543 259.367,226.210 245.935,222.680 233.500 L 221.355 228.833 223.101 227.167 C 224.060 226.250,227.618 222.929,231.006 219.787 C 247.868 204.152,270.133 179.659,279.979 165.917 C 280.603 165.046,281.168 164.333,281.234 164.333 C 281.301 164.333,287.988 166.123,296.095 168.310 M44.000 271.356 C 54.516 278.467,65.229 280.884,87.992 281.282 L 100.485 281.500 103.159 284.867 C 104.630 286.719,108.458 291.664,111.667 295.857 C 128.269 317.555,144.660 333.767,156.939 340.639 C 157.391 340.892,157.386 341.207,156.889 343.545 C 155.487 350.137,155.331 360.880,156.498 370.500 C 157.349 377.521,157.537 376.734,154.833 377.461 C 127.726 384.757,68.808 346.536,42.209 304.400 L 41.355 303.048 42.341 302.832 C 43.818 302.507,43.814 302.365,42.211 297.591 C 38.997 288.020,37.833 277.052,39.203 269.242 L 39.423 267.984 40.462 268.825 C 41.033 269.287,42.625 270.426,44.000 271.356 M237.244 310.799 C 257.260 319.849,283.926 324.071,302.400 321.117 L 303.697 320.910 303.495 324.038 C 302.601 337.875,300.587 346.723,296.464 354.917 L 294.409 359.000 296.455 359.029 C 297.580 359.045,299.250 359.160,300.167 359.285 L 301.833 359.512 296.667 362.618 C 252.423 389.216,184.659 398.011,161.857 380.114 C 159.313 378.118,159.140 377.739,158.538 372.833 C 156.579 356.877,157.373 342.023,160.266 340.539 C 161.781 339.761,169.956 336.768,181.333 332.826 C 208.562 323.392,219.288 318.486,229.845 310.636 C 231.305 309.550,232.650 308.728,232.833 308.809 C 233.017 308.889,235.001 309.785,237.244 310.799 "
              stroke="none" fill="#040404" fill-rule="evenodd"></path>
        <path id="path1"
              d="M197.833 11.348 C 196.917 11.526,193.392 12.206,190.000 12.859 C 169.548 16.798,152.272 22.748,141.887 29.430 L 139.673 30.854 142.700 33.844 C 148.443 39.515,155.266 48.745,164.809 63.750 C 166.413 66.271,167.936 68.333,168.195 68.333 C 169.600 68.333,186.909 70.524,193.500 71.536 C 216.226 75.025,235.660 80.479,250.776 87.609 L 254.255 89.250 260.044 85.086 C 274.790 74.481,287.395 66.919,297.167 62.819 C 298.817 62.126,300.297 61.446,300.456 61.307 C 300.798 61.009,297.807 56.322,294.728 52.333 C 285.391 40.237,266.170 22.819,259.735 20.625 C 241.070 14.258,208.205 9.333,197.833 11.348 M181.500 11.864 C 181.133 11.922,178.808 12.211,176.333 12.505 C 138.299 17.030,100.253 34.658,72.167 60.770 C 68.696 63.996,69.846 64.057,74.883 60.912 C 95.459 48.066,115.295 38.170,132.759 32.039 C 134.666 31.370,136.918 30.198,139.225 28.674 C 148.571 22.502,160.524 17.718,177.167 13.489 C 182.978 12.012,184.755 11.346,181.500 11.864 M272.405 26.863 C 285.865 38.103,295.963 49.143,302.110 59.337 C 303.208 61.157,304.559 62.697,307.060 64.976 C 330.244 86.102,346.155 103.240,356.916 118.675 L 359.833 122.859 362.500 123.597 C 365.993 124.564,370.571 126.851,373.583 129.135 C 374.912 130.142,376.000 130.922,376.000 130.866 C 376.000 130.811,375.009 128.456,373.799 125.633 C 354.741 81.191,319.021 45.415,274.644 26.324 C 271.673 25.046,269.183 24.000,269.110 24.000 C 269.037 24.000,270.520 25.288,272.405 26.863 M63.628 69.251 C 36.205 97.375,17.820 135.430,12.699 174.667 C 11.857 181.117,11.336 186.844,11.334 189.669 L 11.333 191.838 12.780 191.723 L 14.227 191.608 15.330 187.554 C 21.625 164.422,33.406 142.611,47.441 128.105 L 51.048 124.377 51.348 120.139 C 52.479 104.182,56.778 89.780,65.711 72.027 C 70.533 62.444,70.417 62.289,63.628 69.251 M165.000 72.743 C 138.887 97.904,125.732 111.458,115.603 123.633 L 111.333 128.765 111.333 134.347 C 111.333 152.898,116.604 172.706,127.341 194.500 C 130.236 200.379,136.923 212.405,137.749 213.219 C 137.980 213.447,148.906 215.429,162.167 217.649 C 175.367 219.859,193.515 222.942,202.497 224.500 C 211.478 226.058,219.083 227.333,219.395 227.333 C 220.840 227.333,245.397 203.530,255.175 192.652 C 263.874 182.975,272.375 172.807,277.798 165.593 L 279.732 163.020 274.387 148.760 C 271.447 140.917,268.497 133.000,267.830 131.167 C 267.164 129.333,263.716 119.808,260.168 110.000 C 256.620 100.192,253.621 91.920,253.503 91.619 C 253.254 90.981,247.185 88.150,240.500 85.553 C 223.540 78.965,204.169 74.660,177.333 71.515 C 173.392 71.053,169.567 70.598,168.833 70.505 C 167.550 70.341,167.406 70.425,165.000 72.743 M358.706 132.250 C 353.495 157.794,350.692 169.000,347.702 176.249 L 346.705 178.665 348.334 182.770 C 353.408 195.555,356.667 211.798,358.647 234.167 C 359.217 240.618,360.333 256.442,360.333 258.085 C 360.333 258.365,361.014 258.832,361.917 259.171 C 364.437 260.118,370.489 263.219,373.731 265.225 C 375.370 266.238,376.772 267.005,376.848 266.929 C 376.924 266.853,378.024 263.651,379.293 259.812 C 392.205 220.748,392.256 179.831,379.440 140.500 C 377.705 135.174,377.327 134.652,372.676 131.144 C 369.316 128.610,366.844 127.247,363.607 126.146 C 359.912 124.890,360.309 124.396,358.706 132.250 M48.797 129.759 C 34.604 144.414,22.728 166.894,16.864 190.207 L 15.680 194.914 16.841 201.619 C 21.590 229.029,27.937 247.578,37.512 262.033 C 45.653 274.322,60.424 279.163,90.573 279.424 L 99.312 279.500 100.703 276.333 C 111.419 251.931,122.060 232.649,132.987 217.833 C 134.204 216.183,135.312 214.649,135.449 214.423 C 135.597 214.178,134.837 212.559,133.571 210.423 C 117.720 183.679,109.422 158.072,109.214 135.261 L 109.167 130.017 107.833 129.853 C 105.129 129.520,101.209 129.308,88.833 128.822 C 74.973 128.279,68.170 127.738,59.443 126.487 C 56.295 126.036,53.504 125.667,53.240 125.667 C 52.977 125.667,50.977 127.508,48.797 129.759 M279.818 166.411 C 265.358 185.543,246.134 206.333,225.487 225.167 C 221.235 229.046,221.399 228.399,223.119 234.483 C 227.005 248.234,229.088 261.355,231.826 289.333 C 233.734 308.826,233.363 306.835,235.266 307.799 C 254.030 317.306,277.908 321.460,301.333 319.293 C 311.637 318.340,323.117 306.856,349.759 270.852 L 358.378 259.204 358.202 257.685 C 358.105 256.850,357.934 254.367,357.822 252.167 C 356.261 221.490,352.174 197.383,346.035 182.636 L 344.985 180.113 341.576 179.534 C 332.710 178.028,319.937 174.933,296.149 168.530 C 279.294 163.992,281.437 164.270,279.818 166.411 M39.157 271.497 C 38.428 280.252,39.483 288.801,42.358 297.428 C 43.261 300.139,44.000 302.419,44.000 302.496 C 44.000 302.573,43.475 302.735,42.833 302.855 C 41.362 303.131,41.282 302.851,43.897 306.619 C 73.481 349.252,125.074 382.627,153.487 377.511 C 157.411 376.804,157.141 377.468,156.368 370.432 C 154.998 357.975,155.333 346.400,157.203 341.525 C 157.308 341.252,156.383 340.416,154.769 339.325 C 138.911 328.601,128.286 317.788,109.218 292.969 L 100.615 281.771 89.224 281.562 C 64.465 281.109,53.777 278.580,42.535 270.515 C 39.289 268.186,39.437 268.143,39.157 271.497 M230.500 310.360 C 221.354 317.635,208.134 323.754,182.295 332.673 C 171.991 336.230,162.165 339.799,160.294 340.664 C 157.754 341.838,156.883 358.518,158.640 372.333 L 159.298 377.500 161.188 379.236 C 164.925 382.670,172.432 385.717,182.117 387.733 L 187.167 388.785 199.333 388.804 C 234.645 388.859,267.380 380.018,296.333 362.607 L 301.500 359.500 298.500 359.417 C 293.647 359.282,293.810 359.447,295.538 356.418 C 298.465 351.286,300.612 344.707,301.967 336.712 C 302.693 332.425,303.600 321.822,303.268 321.490 C 303.163 321.386,300.773 321.478,297.956 321.695 C 276.987 323.313,255.026 319.338,236.120 310.503 C 232.272 308.705,232.571 308.713,230.500 310.360 "
              stroke="none" fill="#fbfbfb" fill-rule="evenodd"></path>
        <path id="path2"
              d="M208.417 11.230 C 208.737 11.314,209.262 11.314,209.583 11.230 C 209.904 11.146,209.642 11.077,209.000 11.077 C 208.358 11.077,208.096 11.146,208.417 11.230 M285.327 38.750 C 288.573 42.078,289.000 42.485,289.000 42.244 C 289.000 42.195,287.387 40.582,285.417 38.661 L 281.833 35.167 285.327 38.750 M331.667 64.500 C 332.662 65.508,333.552 66.333,333.644 66.333 C 333.736 66.333,332.996 65.508,332.000 64.500 C 331.004 63.492,330.114 62.667,330.023 62.667 C 329.931 62.667,330.671 63.492,331.667 64.500 M65.493 67.083 L 62.500 70.167 65.583 67.174 C 67.279 65.527,68.667 64.140,68.667 64.090 C 68.667 63.848,68.273 64.220,65.493 67.083 M335.500 68.333 C 336.403 69.250,337.217 70.000,337.308 70.000 C 337.400 70.000,336.736 69.250,335.833 68.333 C 334.930 67.417,334.117 66.667,334.025 66.667 C 333.933 66.667,334.597 67.417,335.500 68.333 M164.151 73.417 L 162.833 74.833 164.250 73.516 C 165.567 72.290,165.820 72.000,165.568 72.000 C 165.513 72.000,164.876 72.637,164.151 73.417 M327.167 84.333 C 330.096 87.267,332.567 89.667,332.659 89.667 C 332.751 89.667,330.429 87.267,327.500 84.333 C 324.571 81.400,322.099 79.000,322.008 79.000 C 321.916 79.000,324.238 81.400,327.167 84.333 M154.655 82.583 L 152.833 84.500 154.750 82.678 C 156.531 80.985,156.819 80.667,156.572 80.667 C 156.520 80.667,155.657 81.529,154.655 82.583 M132.982 104.250 L 131.833 105.500 133.083 104.351 C 134.247 103.282,134.487 103.000,134.232 103.000 C 134.176 103.000,133.614 103.563,132.982 104.250 M50.158 128.083 L 47.833 130.500 50.250 128.176 C 52.495 126.017,52.819 125.667,52.574 125.667 C 52.524 125.667,51.436 126.754,50.158 128.083 M89.254 128.902 C 89.669 128.982,90.269 128.979,90.587 128.896 C 90.906 128.812,90.567 128.747,89.833 128.751 C 89.100 128.754,88.839 128.823,89.254 128.902 M109.112 134.333 C 109.112 135.708,109.171 136.271,109.243 135.583 C 109.315 134.896,109.315 133.771,109.243 133.083 C 109.171 132.396,109.112 132.958,109.112 134.333 M11.077 191.000 C 11.077 191.642,11.146 191.904,11.230 191.583 C 11.314 191.262,11.314 190.737,11.230 190.417 C 11.146 190.096,11.077 190.358,11.077 191.000 M388.744 191.000 C 388.744 191.642,388.813 191.904,388.896 191.583 C 388.980 191.262,388.980 190.737,388.896 190.417 C 388.813 190.096,388.744 190.358,388.744 191.000 M248.812 199.417 L 247.833 200.500 248.917 199.521 C 249.512 198.983,250.000 198.495,250.000 198.438 C 250.000 198.180,249.725 198.407,248.812 199.417 M246.655 204.583 L 244.833 206.500 246.750 204.678 C 248.531 202.985,248.819 202.667,248.572 202.667 C 248.520 202.667,247.657 203.529,246.655 204.583 M388.744 209.000 C 388.744 209.642,388.813 209.904,388.896 209.583 C 388.980 209.262,388.980 208.737,388.896 208.417 C 388.813 208.096,388.744 208.358,388.744 209.000 M237.655 213.583 L 235.833 215.500 237.750 213.678 C 239.531 211.985,239.819 211.667,239.572 211.667 C 239.520 211.667,238.657 212.529,237.655 213.583 M232.479 215.750 L 231.500 216.833 232.583 215.854 C 233.593 214.942,233.820 214.667,233.562 214.667 C 233.505 214.667,233.017 215.154,232.479 215.750 M38.787 277.667 C 38.787 279.408,38.843 280.121,38.912 279.250 C 38.980 278.379,38.980 276.954,38.912 276.083 C 38.843 275.212,38.787 275.925,38.787 277.667 M89.434 279.582 C 91.231 279.642,94.081 279.642,95.767 279.581 C 97.454 279.521,95.983 279.472,92.500 279.472 C 89.017 279.473,87.637 279.522,89.434 279.582 M85.750 281.580 C 86.804 281.646,88.529 281.646,89.583 281.580 C 90.638 281.514,89.775 281.459,87.667 281.459 C 85.558 281.459,84.696 281.514,85.750 281.580 M282.083 319.896 C 282.404 319.980,282.929 319.980,283.250 319.896 C 283.571 319.813,283.308 319.744,282.667 319.744 C 282.025 319.744,281.762 319.813,282.083 319.896 M66.167 333.667 C 67.993 335.500,69.562 337.000,69.654 337.000 C 69.746 337.000,68.326 335.500,66.500 333.667 C 64.674 331.833,63.104 330.333,63.013 330.333 C 62.921 330.333,64.340 331.833,66.167 333.667 M155.453 356.667 C 155.453 358.408,155.510 359.121,155.578 358.250 C 155.647 357.379,155.647 355.954,155.578 355.083 C 155.510 354.212,155.453 354.925,155.453 356.667 M157.424 356.667 C 157.424 357.492,157.489 357.829,157.569 357.417 C 157.648 357.004,157.648 356.329,157.569 355.917 C 157.489 355.504,157.424 355.842,157.424 356.667 M295.083 359.230 C 295.404 359.314,295.929 359.314,296.250 359.230 C 296.571 359.146,296.308 359.077,295.667 359.077 C 295.025 359.077,294.762 359.146,295.083 359.230 M146.587 378.236 C 147.002 378.315,147.602 378.312,147.921 378.229 C 148.239 378.146,147.900 378.080,147.167 378.084 C 146.433 378.088,146.173 378.156,146.587 378.236 M190.417 388.896 C 190.737 388.980,191.262 388.980,191.583 388.896 C 191.904 388.813,191.642 388.744,191.000 388.744 C 190.358 388.744,190.096 388.813,190.417 388.896 M208.417 388.896 C 208.737 388.980,209.262 388.980,209.583 388.896 C 209.904 388.813,209.642 388.744,209.000 388.744 C 208.358 388.744,208.096 388.813,208.417 388.896 "
              stroke="none" fill="#a0a0a0" fill-rule="evenodd"></path>
        <path id="path3"
              d="M201.750 10.896 C 202.071 10.980,202.596 10.980,202.917 10.896 C 203.237 10.813,202.975 10.744,202.333 10.744 C 201.692 10.744,201.429 10.813,201.750 10.896 M284.167 40.333 C 285.255 41.433,286.221 42.333,286.312 42.333 C 286.404 42.333,285.589 41.433,284.500 40.333 C 283.411 39.233,282.446 38.333,282.354 38.333 C 282.263 38.333,283.078 39.233,284.167 40.333 M158.818 78.417 L 157.500 79.833 158.917 78.516 C 160.234 77.290,160.487 77.000,160.234 77.000 C 160.180 77.000,159.542 77.637,158.818 78.417 M143.161 93.750 L 139.500 97.500 143.250 93.839 C 145.313 91.825,147.000 90.138,147.000 90.089 C 147.000 89.849,146.561 90.267,143.161 93.750 M130.146 107.083 L 129.167 108.167 130.250 107.188 C 131.260 106.275,131.487 106.000,131.229 106.000 C 131.172 106.000,130.684 106.487,130.146 107.083 M82.921 128.569 C 83.335 128.649,83.935 128.646,84.254 128.562 C 84.573 128.479,84.233 128.414,83.500 128.417 C 82.767 128.421,82.506 128.489,82.921 128.569 M92.254 128.902 C 92.669 128.982,93.269 128.979,93.587 128.896 C 93.906 128.812,93.567 128.747,92.833 128.751 C 92.100 128.754,91.839 128.823,92.254 128.902 M111.091 131.000 C 111.091 131.825,111.156 132.162,111.235 131.750 C 111.315 131.337,111.315 130.662,111.235 130.250 C 111.156 129.837,111.091 130.175,111.091 131.000 M376.000 133.771 C 376.000 133.828,376.488 134.316,377.083 134.854 L 378.167 135.833 377.188 134.750 C 376.275 133.740,376.000 133.513,376.000 133.771 M111.084 137.500 C 111.088 138.233,111.156 138.494,111.236 138.079 C 111.315 137.665,111.312 137.065,111.229 136.746 C 111.146 136.427,111.080 136.767,111.084 137.500 M389.120 200.000 C 389.120 201.742,389.176 202.454,389.245 201.583 C 389.314 200.713,389.314 199.287,389.245 198.417 C 389.176 197.546,389.120 198.258,389.120 200.000 M240.833 207.667 C 238.639 209.867,236.919 211.667,237.010 211.667 C 237.102 211.667,238.972 209.867,241.167 207.667 C 243.361 205.467,245.081 203.667,244.990 203.667 C 244.898 203.667,243.028 205.467,240.833 207.667 M82.417 279.572 C 82.921 279.648,83.746 279.648,84.250 279.572 C 84.754 279.496,84.342 279.433,83.333 279.433 C 82.325 279.433,81.912 279.496,82.417 279.572 M95.750 281.578 C 96.621 281.647,98.046 281.647,98.917 281.578 C 99.787 281.510,99.075 281.453,97.333 281.453 C 95.592 281.453,94.879 281.510,95.750 281.578 M320.324 307.250 L 318.167 309.500 320.417 307.343 C 321.654 306.157,322.667 305.144,322.667 305.093 C 322.667 304.848,322.327 305.160,320.324 307.250 M303.417 322.167 C 303.421 322.900,303.489 323.161,303.569 322.746 C 303.649 322.331,303.646 321.731,303.562 321.413 C 303.479 321.094,303.414 321.433,303.417 322.167 M283.583 321.902 C 283.996 321.981,284.671 321.981,285.083 321.902 C 285.496 321.822,285.158 321.757,284.333 321.757 C 283.508 321.757,283.171 321.822,283.583 321.902 M291.917 321.902 C 292.329 321.981,293.004 321.981,293.417 321.902 C 293.829 321.822,293.492 321.757,292.667 321.757 C 291.842 321.757,291.504 321.822,291.917 321.902 M297.417 359.230 C 297.737 359.314,298.262 359.314,298.583 359.230 C 298.904 359.146,298.642 359.077,298.000 359.077 C 297.358 359.077,297.096 359.146,297.417 359.230 M157.411 360.333 C 157.411 360.975,157.479 361.238,157.563 360.917 C 157.647 360.596,157.647 360.071,157.563 359.750 C 157.479 359.429,157.411 359.692,157.411 360.333 M198.250 389.246 C 199.213 389.313,200.787 389.313,201.750 389.246 C 202.713 389.178,201.925 389.123,200.000 389.123 C 198.075 389.123,197.287 389.178,198.250 389.246 "
              stroke="none" fill="#747474" fill-rule="evenodd"></path>
        <path id="path4"
              d="M111.107 134.333 C 111.107 135.525,111.167 136.012,111.241 135.417 C 111.315 134.821,111.315 133.846,111.241 133.250 C 111.167 132.654,111.107 133.142,111.107 134.333 M242.159 209.083 L 239.500 211.833 242.250 209.174 C 244.804 206.705,245.152 206.333,244.909 206.333 C 244.859 206.333,243.621 207.571,242.159 209.083 M92.088 281.573 C 92.595 281.649,93.345 281.647,93.755 281.568 C 94.165 281.489,93.750 281.426,92.833 281.429 C 91.917 281.431,91.581 281.496,92.088 281.573 "
              stroke="none" fill="#7c7c7c" fill-rule="evenodd"></path>
    </g>
</svg>
